<?xml version="1.0" standalone="no"?>
<!DOCTYPE svg PUBLIC "-//W3C//DTD SVG 20010904//EN"
 "http://www.w3.org/TR/2001/REC-SVG-20010904/DTD/svg10.dtd">
<svg version="1.0" xmlns="http://www.w3.org/2000/svg"
 width="1848.000000pt" height="363.000000pt" viewBox="0 0 1848.000000 363.000000"
 preserveAspectRatio="xMidYMid meet">

<g transform="translate(0.000000,363.000000) scale(0.100000,-0.100000)"
fill="#000000" stroke="none">
<path d="M2413 3230 c-110 -20 -55 10 -1138 -623 -357 -208 -662 -391 -677
-405 -36 -33 -43 -57 -28 -92 27 -65 148 -121 277 -128 209 -11 323 28 754
258 529 283 796 415 867 430 84 17 164 8 242 -27 36 -16 283 -150 549 -297
266 -147 511 -278 545 -292 262 -107 525 -86 646 52 58 66 42 88 -143 195 -78
45 -453 264 -833 485 -501 291 -711 408 -760 424 -79 24 -224 34 -301 20z"/>
<path d="M3662 3207 c-21 -22 -22 -32 -22 -213 l0 -189 278 -162 277 -162 3
356 c2 321 1 358 -14 375 -16 17 -37 18 -259 18 -240 0 -242 0 -263 -23z"/>
<path d="M5525 3220 c-252 -17 -427 -72 -535 -168 -88 -77 -121 -197 -123
-442 -2 -167 10 -233 58 -336 74 -154 196 -223 565 -318 184 -48 216 -61 253
-106 69 -82 28 -223 -78 -271 -94 -43 -486 -7 -668 61 -32 12 -60 20 -63 17
-6 -6 -143 -451 -140 -454 8 -9 291 -75 393 -92 351 -59 620 -47 830 38 143
57 247 172 296 326 20 63 22 90 21 270 -2 291 -30 385 -144 487 -59 53 -185
119 -264 137 -27 7 -108 16 -180 21 -271 19 -345 75 -315 236 11 58 49 102
100 113 20 5 129 4 245 0 115 -4 263 -8 330 -8 l120 -1 32 217 c18 119 29 220
24 224 -17 17 -520 63 -622 57 -14 0 -74 -4 -135 -8z"/>
<path d="M10007 2660 c-174 -20 -333 -85 -419 -171 -57 -57 -104 -151 -118
-235 -16 -98 -12 -687 5 -768 30 -142 112 -263 226 -337 207 -133 717 -128
987 10 23 12 42 25 42 29 0 4 -16 75 -36 159 l-36 152 -37 -14 c-75 -26 -248
-56 -356 -62 -237 -12 -355 61 -355 220 l0 57 424 0 424 0 8 77 c9 98 -10 322
-36 433 -29 121 -98 258 -163 323 -56 55 -136 100 -208 116 -66 15 -264 21
-352 11z m226 -364 c62 -31 91 -85 96 -178 l3 -78 -213 2 -214 3 -3 50 c-6
100 40 182 120 212 47 18 165 11 211 -11z"/>
<path d="M8812 2646 c-100 -19 -221 -61 -314 -107 l-77 -39 -22 70 -23 70
-183 0 -183 0 0 -1120 0 -1120 23 5 c12 3 105 18 207 35 102 17 195 32 208 35
l22 5 0 311 c0 291 1 310 18 305 205 -65 427 -82 541 -42 64 23 173 99 227
159 26 29 61 81 78 117 l31 65 3 446 c2 374 0 458 -12 513 -31 132 -98 226
-194 272 -49 24 -72 28 -167 30 -65 2 -140 -2 -183 -10z m31 -390 c18 -7 47
-30 65 -50 l32 -37 0 -310 c0 -345 -3 -364 -62 -396 -46 -25 -214 -25 -320 0
l-78 18 0 343 0 343 60 32 c126 67 232 87 303 57z"/>
<path d="M11511 2579 c-132 -53 -197 -75 -202 -68 -4 7 -12 38 -19 70 l-13 59
-188 0 -189 0 0 -780 0 -780 225 0 225 0 2 481 3 482 185 88 185 89 3 220 c2
173 0 220 -10 219 -7 0 -101 -36 -207 -80z"/>
<path d="M6430 1957 l0 -683 26 -53 c64 -128 244 -184 479 -147 55 8 172 36
260 62 88 25 169 48 180 51 16 3 26 -7 48 -47 16 -28 34 -53 40 -55 7 -2 81
-6 165 -8 l152 -5 0 784 0 784 -230 0 -230 0 0 -509 0 -509 -36 -27 c-20 -15
-64 -42 -98 -59 -54 -27 -71 -31 -146 -31 -62 0 -94 5 -117 18 l-33 18 0 549
0 550 -230 0 -230 0 0 -683z"/>
<path d="M2385 2536 c-33 -8 -87 -24 -120 -37 -92 -34 -1074 -588 -1113 -628
-40 -39 -78 -117 -88 -177 l-6 -41 68 -6 c164 -16 195 -31 954 -450 360 -199
406 -217 566 -218 156 0 168 5 774 331 l555 298 3 52 c2 41 -3 65 -23 107 -45
90 -104 139 -306 252 -101 57 -332 186 -512 288 -180 102 -360 196 -400 210
-90 31 -259 40 -352 19z m105 -476 l0 -200 -205 0 -205 0 0 200 0 200 205 0
205 0 0 -200z m490 0 l0 -200 -200 0 -200 0 0 200 0 200 200 0 200 0 0 -200z
m-490 -500 l0 -200 -205 0 -205 0 0 200 0 200 205 0 205 0 0 -200z m490 0 l0
-200 -200 0 -200 0 0 200 0 200 200 0 200 0 0 -200z"/>
</g>
</svg>
