<?xml version="1.0" standalone="no"?>
<!DOCTYPE svg PUBLIC "-//W3C//DTD SVG 20010904//EN"
 "http://www.w3.org/TR/2001/REC-SVG-20010904/DTD/svg10.dtd">
<svg version="1.0" xmlns="http://www.w3.org/2000/svg"
 width="1080.000000pt" height="1080.000000pt" viewBox="0 0 1080.000000 1080.000000"
 preserveAspectRatio="xMidYMid meet">

<g transform="translate(0.000000,1080.000000) scale(0.100000,-0.100000)"
fill="#000000" stroke="none">
<path d="M5160 8404 c-104 -20 -199 -63 -378 -170 -68 -41 -125 -74 -127 -74
-2 0 -48 -26 -102 -58 -54 -32 -152 -90 -218 -129 -66 -38 -181 -105 -255
-148 -74 -43 -182 -106 -240 -141 -58 -34 -121 -71 -140 -82 -19 -10 -84 -48
-145 -84 -101 -60 -178 -105 -523 -307 -167 -98 -197 -150 -131 -226 140 -159
480 -174 813 -35 39 17 158 77 265 135 107 58 242 131 300 161 58 31 142 76
186 99 619 328 725 375 854 375 114 0 188 -27 406 -150 336 -188 956 -530 962
-530 3 0 32 -16 64 -35 126 -77 375 -145 531 -145 78 0 192 25 257 58 31 15
79 50 108 78 45 42 53 56 53 86 0 30 -7 42 -36 66 -19 16 -47 35 -62 43 -15 8
-74 41 -132 75 -58 34 -208 121 -335 194 -126 73 -277 161 -335 195 -119 70
-382 224 -840 490 -74 43 -147 85 -162 94 -246 145 -292 161 -483 166 -71 2
-141 1 -155 -1z"/>
<path d="M6707 8389 c-40 -23 -47 -67 -47 -293 l0 -215 100 -60 c56 -34 103
-61 105 -61 2 0 50 -28 107 -61 57 -34 157 -93 223 -132 66 -38 130 -76 143
-84 l22 -13 0 445 c0 432 -1 446 -20 465 -19 19 -33 20 -317 20 -193 -1 -304
-4 -316 -11z"/>
<path d="M5142 7549 c-62 -11 -187 -51 -241 -78 -20 -9 -90 -48 -156 -86 -182
-102 -300 -169 -460 -257 -49 -28 -94 -54 -100 -58 -5 -4 -39 -23 -75 -43 -36
-19 -96 -53 -135 -74 -38 -22 -125 -70 -193 -108 -135 -76 -184 -113 -225
-173 -32 -46 -63 -127 -73 -188 l-6 -43 -397 -1 c-520 -1 -608 -9 -727 -67
-127 -62 -195 -187 -164 -301 13 -51 86 -132 118 -132 12 0 22 -4 22 -9 0 -19
86 -24 390 -22 359 2 669 -12 750 -33 160 -42 326 -118 483 -219 45 -30 109
-69 142 -87 33 -18 62 -36 65 -39 3 -3 21 -14 40 -24 68 -36 95 -52 108 -64 7
-7 18 -13 24 -13 6 0 26 -11 44 -25 18 -14 35 -25 38 -25 3 0 29 -14 58 -31
29 -18 73 -43 98 -57 25 -13 52 -31 61 -38 8 -8 19 -14 24 -14 4 0 23 -11 41
-25 18 -14 35 -25 39 -25 3 0 34 -19 68 -41 34 -23 88 -54 120 -69 31 -15 63
-32 70 -37 6 -5 44 -22 82 -37 39 -16 84 -34 100 -41 45 -20 226 -55 282 -55
58 0 220 33 271 56 105 45 172 79 172 86 0 4 7 8 15 8 15 0 95 48 95 57 0 2
-5 1 -12 -3 -7 -4 -8 -3 -4 5 4 6 12 9 17 6 5 -4 28 7 51 23 24 15 81 50 128
77 47 26 112 64 145 84 90 54 168 100 276 162 16 9 34 21 41 26 7 6 24 14 38
18 14 4 27 11 30 14 3 4 23 18 44 31 22 13 34 26 27 28 -6 2 -23 -3 -36 -12
-30 -20 -41 -21 -26 -2 9 11 9 15 -1 20 -7 3 1 3 17 -1 17 -3 27 -3 24 1 -8 9
34 56 50 56 6 0 11 -7 11 -16 0 -12 -3 -14 -13 -6 -9 8 -16 6 -24 -8 -10 -15
-9 -19 3 -24 21 -8 86 23 77 37 -3 6 -1 7 6 3 6 -4 24 1 39 11 38 26 52 34
192 114 69 40 168 98 220 129 52 31 115 68 140 81 25 13 59 33 75 44 17 12 47
30 69 41 21 10 41 27 44 37 2 10 11 16 18 13 12 -4 83 33 140 74 60 43 52 116
-19 161 -139 87 -336 132 -497 112 -85 -11 -99 -17 -317 -128 -125 -65 -232
-120 -237 -123 -5 -3 6 -13 25 -23 19 -10 30 -18 26 -19 -4 0 -22 7 -38 16
-28 14 -33 14 -74 -10 -25 -13 -47 -21 -49 -18 -2 4 99 63 226 131 l230 125
-4 70 c-4 51 -13 86 -33 126 -36 71 -143 177 -225 222 -36 20 -103 57 -150 83
-47 26 -110 61 -140 78 -30 17 -116 65 -190 107 -74 42 -180 101 -235 132 -55
31 -183 103 -285 160 -209 118 -220 123 -310 150 -76 23 -293 33 -378 17z
m106 -591 l2 -248 -250 0 -250 0 0 243 c0 134 3 247 7 251 4 3 115 5 247 4
l241 -3 3 -247z m610 0 l2 -248 -250 0 -250 0 0 250 0 250 248 -2 247 -3 3
-247z m-608 -618 l0 -250 -250 0 -250 0 0 250 0 250 250 0 250 0 0 -250z m610
0 l0 -250 -249 0 c-156 0 -251 4 -253 10 -1 5 -2 118 0 250 l3 240 249 0 250
0 0 -250z m-2317 93 c-7 -2 -21 -2 -30 0 -10 3 -4 5 12 5 17 0 24 -2 18 -5z
m3850 0 c-7 -2 -21 -2 -30 0 -10 3 -4 5 12 5 17 0 24 -2 18 -5z m90 0 c-7 -2
-21 -2 -30 0 -10 3 -4 5 12 5 17 0 24 -2 18 -5z m-4163 -11 c-19 -2 -37 -7
-40 -12 -3 -4 -25 -4 -50 0 -25 5 -61 9 -80 8 l-35 -1 35 -7 c21 -5 6 -6 -39
-3 -68 5 -74 4 -68 -12 6 -13 3 -16 -9 -11 -8 3 -46 7 -82 7 l-67 2 70 8 c39
5 93 12 120 17 28 4 102 8 165 7 63 0 99 -1 80 -3z m145 -12 c0 -8 -9 -16 -20
-17 -11 -2 -14 0 -7 3 25 12 10 23 -35 27 -45 4 -44 4 7 3 42 -1 55 -5 55 -16z
m168 13 c-7 -2 -19 -2 -25 0 -7 3 -2 5 12 5 14 0 19 -2 13 -5z m3642 -3 c-16
-4 -41 -8 -55 -8 -22 0 -22 1 5 8 17 4 41 8 55 8 22 0 22 -1 -5 -8z m-4472 -7
c-45 -2 -122 -2 -170 0 -48 1 -11 3 82 3 94 0 133 -2 88 -3z m4617 -3 c-21 -7
-22 -8 -5 -10 14 -1 10 -5 -13 -13 -20 -6 -36 -7 -40 -1 -9 11 -42 15 -42 4 0
-4 -10 -8 -22 -9 -63 -2 -90 -7 -98 -20 -10 -17 -40 -24 -40 -10 0 5 8 13 18
16 9 4 20 11 24 17 8 12 138 33 203 34 34 0 36 -1 15 -8z m-4883 -6 c-3 -3
-12 -4 -19 -1 -8 3 -5 6 6 6 11 1 17 -2 13 -5z m1006 -8 c3 3 14 1 24 -5 16
-9 15 -10 -8 -11 -15 0 -33 8 -40 18 -12 15 -12 16 2 5 9 -7 18 -10 22 -7z
m194 8 c-3 -3 -12 -4 -19 -1 -8 3 -5 6 6 6 11 1 17 -2 13 -5z m3822 -7 c39
-20 38 -37 -3 -37 -29 0 -36 4 -36 19 0 12 -8 21 -22 24 -18 3 -16 5 7 5 17 1
41 -4 54 -11z m-4176 -4 c-7 -2 -19 -2 -25 0 -7 3 -2 5 12 5 14 0 19 -2 13 -5z
m-833 -13 c0 -5 -5 -10 -11 -10 -5 0 -7 5 -4 10 3 6 8 10 11 10 2 0 4 -4 4
-10z m1169 -9 c12 -8 12 -12 2 -25 -16 -19 -41 -10 -41 15 0 20 16 24 39 10z
m-1325 -26 c21 -16 14 -35 -13 -35 -13 0 -18 8 -18 25 0 28 4 30 31 10z m1400
6 c3 -5 -5 -11 -18 -13 -17 -4 -23 -1 -19 9 6 15 29 18 37 4z m3303 3 c-3 -3
-12 -4 -19 -1 -8 3 -5 6 6 6 11 1 17 -2 13 -5z m53 -21 c0 -14 -19 -17 -45 -7
-10 4 -13 9 -6 13 18 11 51 7 51 -6z m-3293 0 c-4 -3 -24 -8 -45 -10 -27 -2
-33 -1 -22 7 17 11 77 14 67 3z m3213 -3 c18 -12 2 -12 -25 0 -13 6 -15 9 -5
9 8 0 22 -4 30 -9z m703 -7 c-7 -2 -19 -2 -25 0 -7 3 -2 5 12 5 14 0 19 -2 13
-5z m-5453 -45 c0 -12 -10 -9 -26 6 -20 21 -17 28 6 14 11 -7 20 -16 20 -20z
m-42 -10 c19 -19 14 -30 -8 -18 -11 6 -20 15 -20 20 0 14 14 12 28 -2z m1657
-7 c3 -5 1 -12 -5 -16 -5 -3 -10 1 -10 9 0 18 6 21 15 7z m3826 -10 c1 -9 1
-19 0 -23 0 -4 11 -3 26 3 27 10 27 10 8 -11 -11 -13 -27 -19 -38 -16 -13 3
-17 0 -13 -10 3 -9 1 -12 -4 -9 -16 10 -9 82 7 82 7 0 14 -7 14 -16z m-870 0
c-9 -6 0 -11 30 -16 38 -7 41 -9 21 -16 -23 -9 -53 -2 -64 15 -8 13 -1 26 15
26 8 0 7 -3 -2 -9z m-2864 -20 c10 -15 9 -20 -1 -24 -18 -7 -26 1 -26 25 0 23
12 23 27 -1z m-1777 -61 c0 -13 -1 -13 -10 0 -8 13 -10 13 -14 0 -3 -8 -7 -37
-9 -65 -3 -45 -4 -43 -5 16 -2 66 13 103 30 76 4 -6 8 -19 8 -27z m5550 20 c0
-5 -5 -10 -11 -10 -5 0 -7 5 -4 10 3 6 8 10 11 10 2 0 4 -4 4 -10z m-760 -20
c0 -5 -11 -10 -25 -10 -14 0 -25 5 -25 10 0 6 11 10 25 10 14 0 25 -4 25 -10z
m-2883 -6 c-3 -3 -12 -4 -19 -1 -8 3 -5 6 6 6 11 1 17 -2 13 -5z m3383 -14 c0
-5 -5 -10 -11 -10 -5 0 -7 5 -4 10 3 6 8 10 11 10 2 0 4 -4 4 -10z m175 1 c3
-6 -4 -15 -16 -21 -17 -9 -20 -9 -14 0 4 7 1 16 -6 21 -11 6 -8 9 8 9 12 0 24
-4 28 -9z m-3435 -21 c0 -5 -4 -10 -10 -10 -5 0 -10 5 -10 10 0 6 5 10 10 10
6 0 10 -4 10 -10z m2330 -3 c-35 -15 -36 -17 -21 -27 10 -6 7 -8 -10 -8 -13 0
-35 -3 -49 -6 -14 -3 -19 -3 -11 0 8 4 30 17 49 30 19 13 42 24 51 23 10 0 7
-4 -9 -12z m108 -17 c0 -16 -3 -30 -8 -30 -5 0 -7 7 -4 15 7 18 0 19 -26 3
-29 -19 -38 1 -10 22 35 27 47 25 48 -10z m906 15 c3 -9 -1 -18 -10 -22 -8 -3
-13 -11 -10 -18 2 -7 -1 -12 -7 -12 -35 1 -46 -4 -41 -18 7 -18 -7 -20 -24 -3
-16 16 -15 29 2 22 14 -5 30 8 56 45 17 25 26 26 34 6z m-3296 -40 c-3 -3 -9
2 -12 12 -6 14 -5 15 5 6 7 -7 10 -15 7 -18z m-4 -10 c10 -7 15 -19 11 -25 -5
-8 -11 -8 -21 1 -8 6 -22 9 -33 6 -14 -3 -17 0 -14 14 6 22 30 24 57 4z m2233
-42 c-3 -3 -11 -2 -17 2 -8 5 -7 11 2 22 12 15 13 14 16 -1 2 -10 1 -20 -1
-23z m-77 23 c0 -2 -7 -7 -16 -10 -8 -3 -12 -2 -9 4 6 10 25 14 25 6z m-40
-31 c0 -8 8 -15 18 -16 11 0 12 -2 4 -6 -7 -3 -19 1 -27 7 -8 7 -23 9 -32 6
-15 -5 -15 -4 1 9 25 19 36 19 36 0z m-2255 -15 c3 -5 1 -10 -4 -10 -6 0 -11
5 -11 10 0 6 2 10 4 10 3 0 8 -4 11 -10z m-1826 -27 c10 -17 12 -17 26 1 15
19 15 19 15 -2 0 -13 -7 -25 -15 -29 -16 -5 -55 22 -55 39 0 14 19 9 29 -9z
m4001 7 c0 -5 -5 -10 -11 -10 -5 0 -7 5 -4 10 3 6 8 10 11 10 2 0 4 -4 4 -10z
m870 2 c0 -5 -7 -9 -15 -9 -8 0 -15 4 -15 9 0 4 7 8 15 8 8 0 15 -4 15 -8z
m158 1 c-10 -2 -18 -11 -18 -19 0 -12 4 -12 31 1 17 9 36 14 42 12 7 -3 -4
-12 -23 -21 -19 -9 -49 -26 -65 -36 -22 -14 -39 -17 -58 -12 -42 11 -36 26 15
36 32 6 48 15 51 28 3 10 13 17 24 17 16 -1 16 -2 1 -6z m-5076 -25 c-6 -6
-15 -8 -19 -4 -4 4 -1 11 7 16 19 12 27 3 12 -12z m1248 8 c0 -8 -7 -16 -15
-20 -10 -4 -15 1 -15 14 0 11 7 20 15 20 8 0 15 -6 15 -14z m927 -18 c-3 -7
-5 -2 -5 12 0 14 2 19 5 13 2 -7 2 -19 0 -25z m-1608 -3 c2 -3 -67 -4 -153 -4
-86 0 -156 3 -156 8 0 8 301 4 309 -4z m156 5 c4 -6 -22 -10 -69 -10 -44 0
-76 4 -76 10 0 6 30 10 69 10 39 0 73 -4 76 -10z m315 0 c0 -5 -7 -10 -16 -10
-8 0 -12 5 -9 10 3 6 10 10 16 10 5 0 9 -4 9 -10z m3026 -15 c-11 -8 -27 -15
-35 -15 -11 0 -10 4 5 15 10 8 26 14 34 14 11 0 10 -3 -4 -14z m-2858 -23 c3
-9 -2 -13 -14 -10 -9 1 -19 9 -22 16 -3 9 2 13 14 10 9 -1 19 -9 22 -16z
m2742 14 c0 -2 -7 -7 -16 -10 -8 -3 -12 -2 -9 4 6 10 25 14 25 6z m-2754 -41
c10 -8 14 -15 9 -15 -6 0 -15 4 -20 9 -6 5 -23 11 -40 14 l-30 4 31 2 c16 0
39 -6 50 -14z m3794 7 c0 -4 -18 -7 -40 -7 -22 0 -40 3 -40 7 0 5 18 8 40 8
22 0 40 -3 40 -8z m-2640 -23 c0 -5 -4 -9 -10 -9 -5 0 -10 7 -10 16 0 8 5 12
10 9 6 -3 10 -10 10 -16z m1572 9 c-9 -9 -9 -15 0 -25 10 -12 7 -12 -15 -2
l-27 12 23 13 c29 16 34 17 19 2z m65 -4 c-3 -3 -12 -4 -19 -1 -8 3 -5 6 6 6
11 1 17 -2 13 -5z m-2697 -14 c0 -13 -11 -13 -30 0 -12 8 -11 10 8 10 12 0 22
-4 22 -10z m3680 6 c0 -2 -9 -6 -20 -9 -11 -3 -20 -1 -20 4 0 5 9 9 20 9 11 0
20 -2 20 -4z m-2503 -22 c-10 -10 -127 -12 -121 -2 4 6 24 8 45 5 22 -3 41 -1
44 4 3 4 12 6 21 2 8 -3 13 -7 11 -9z m1358 6 c3 -5 -1 -10 -10 -10 -9 0 -13
5 -10 10 3 6 8 10 10 10 2 0 7 -4 10 -10z m1072 -22 c-3 -8 -6 -5 -6 6 -1 11
2 17 5 13 3 -3 4 -12 1 -19z m-1000 6 c-3 -3 -12 -4 -19 -1 -8 3 -5 6 6 6 11
1 17 -2 13 -5z m-2427 -15 c0 -27 -25 -34 -58 -18 -27 14 -30 18 -15 22 34 9
73 7 73 -4z m3375 1 c-27 -12 -43 -12 -25 0 8 5 22 9 30 9 10 0 8 -3 -5 -9z
m-118 -51 c-3 -11 1 -20 12 -22 9 -2 -9 -3 -39 -2 -30 2 -49 1 -43 -2 16 -6
-25 -63 -45 -63 -10 0 -12 8 -7 33 4 17 13 35 19 39 6 4 25 16 41 26 36 22 69
18 62 -9z m-3116 -15 c24 -21 27 -53 4 -34 -9 7 -19 9 -23 5 -4 -4 -1 -10 6
-12 6 -3 12 -9 12 -15 0 -6 -6 -6 -15 2 -8 7 -15 19 -15 26 0 8 -5 14 -11 14
-5 0 -8 4 -5 9 8 12 -20 22 -39 15 -8 -4 -15 -1 -15 6 0 18 77 6 101 -16z
m929 -4 c-26 -22 -36 -25 -45 -10 -11 17 5 30 37 30 l31 0 -23 -20z m1170 10
c-8 -5 -22 -10 -30 -10 -13 0 -13 1 0 10 8 5 22 10 30 10 13 0 13 -1 0 -10z
m60 -4 c0 -18 -16 -29 -30 -21 -13 8 -1 35 16 35 8 0 14 -6 14 -14z m-1031
-50 c8 -6 26 -16 40 -23 14 -6 20 -12 13 -12 -13 -1 -74 29 -102 49 -12 9 -10
10 10 4 14 -3 31 -12 39 -18z m-12 -30 c1 -1 -16 -1 -37 -1 -24 0 -34 3 -27 8
9 7 9 10 0 14 -7 2 -13 9 -13 14 0 6 61 -21 77 -35z m883 21 c0 -19 -5 -22
-40 -23 -22 -1 -37 2 -34 7 3 5 14 9 24 9 11 0 25 7 32 15 17 19 18 19 18 -8z
m1065 3 c-3 -5 -11 -10 -16 -10 -6 0 -7 5 -4 10 3 6 11 10 16 10 6 0 7 -4 4
-10z m-2038 -16 c-3 -3 -12 -4 -19 -1 -8 3 -5 6 6 6 11 1 17 -2 13 -5z m863
-4 c-8 -5 -19 -10 -25 -10 -5 0 -3 5 5 10 8 5 20 10 25 10 6 0 3 -5 -5 -10z
m-1650 -21 c0 -4 -9 -9 -20 -12 -13 -3 -20 0 -20 8 0 8 9 13 20 12 11 -1 20
-4 20 -8z m-165 -9 c3 -6 -1 -7 -9 -4 -18 7 -21 14 -7 14 6 0 13 -4 16 -10z
m55 0 c0 -5 -6 -10 -14 -10 -8 0 -18 5 -21 10 -3 6 3 10 14 10 12 0 21 -4 21
-10z m1690 0 c0 -5 -8 -10 -17 -10 -15 0 -16 2 -3 10 19 12 20 12 20 0z m1130
6 c0 -9 -30 -14 -35 -6 -4 6 3 10 14 10 12 0 21 -2 21 -4z m-2768 -45 c2 -14
-2 -25 -10 -27 -7 -1 -8 0 -3 2 15 8 -11 33 -26 27 -20 -8 -15 15 5 26 20 12
29 4 34 -28z m1573 14 c-16 -8 -41 -14 -55 -15 -14 0 -20 -3 -14 -8 7 -4 -25
-7 -70 -8 l-81 -1 104 18 c57 10 106 20 109 23 3 4 12 6 21 5 9 0 3 -7 -14
-14z m-521 -16 c-5 -9 1 -10 22 -5 23 5 25 4 12 -4 -19 -11 -68 -3 -68 11 0 5
9 9 21 9 13 0 18 -4 13 -11z m175 -5 c9 -8 -45 -2 -64 6 -14 7 -8 8 20 3 22
-3 42 -7 44 -9z m414 9 c-7 -2 -19 -2 -25 0 -7 3 -2 5 12 5 14 0 19 -2 13 -5z
m-320 -20 c-13 -2 -33 -2 -45 0 -13 2 -3 4 22 4 25 0 35 -2 23 -4z m-1277 -19
c-9 -8 -21 -12 -28 -8 -8 5 -6 10 8 15 31 12 37 10 20 -7z m1609 6 c-3 -5 -10
-10 -16 -10 -5 0 -9 5 -9 10 0 6 7 10 16 10 8 0 12 -4 9 -10z m-441 -28 c3 -5
-1 -9 -9 -9 -8 0 -12 4 -9 9 3 4 7 8 9 8 2 0 6 -4 9 -8z m1294 -67 c-40 -22
-70 -25 -38 -4 11 6 12 11 3 17 -6 4 9 8 34 9 l45 2 -44 -24z m-2244 -12 c9 4
16 2 16 -4 0 -6 9 -8 20 -4 11 3 20 2 20 -4 0 -5 12 -11 28 -13 21 -2 27 -9
29 -28 1 -14 0 -18 -3 -7 -7 24 -24 21 -24 -4 0 -12 -5 -19 -12 -16 -7 2 -12
14 -10 25 3 17 -2 22 -20 24 -13 1 -32 3 -43 4 -11 1 -28 2 -38 3 -15 1 -16 4
-6 22 8 16 13 18 19 9 4 -7 15 -10 24 -7z m2076 -32 c0 -10 -30 -24 -37 -17
-3 3 -2 9 2 15 8 13 35 15 35 2z m3 -33 c3 -10 8 -10 21 1 9 8 19 11 22 8 3
-3 -3 -10 -14 -16 -21 -11 -52 -5 -52 10 0 14 18 11 23 -3z m-20 -29 c5 -3 2
-9 -5 -12 -9 -3 -14 3 -15 15 -1 11 1 16 5 12 4 -5 11 -12 15 -15z m-1626 -44
c0 -17 -13 -20 -21 -6 -4 5 0 12 6 14 7 3 13 6 14 6 0 1 1 -6 1 -14z m1343 3
c0 -4 -3 -8 -7 -8 -5 0 -18 -3 -30 -6 -17 -5 -23 -2 -23 10 0 12 8 16 30 14
17 -1 30 -6 30 -10z m213 -3 c-10 -7 -31 -11 -46 -8 -38 7 -26 18 23 20 37 1
40 0 23 -12z m-1735 -9 c14 -8 16 -36 3 -36 -5 0 -14 7 -22 16 -7 9 -21 13
-35 10 -12 -3 -27 0 -33 8 -9 10 -3 13 32 12 23 -1 48 -5 55 -10z m1637 -15
c3 -5 1 -12 -5 -16 -5 -3 -10 1 -10 9 0 18 6 21 15 7z m65 -1 c0 -5 -12 -10
-27 -9 l-28 1 25 8 c14 4 26 8 28 9 1 1 2 -3 2 -9z m-1615 -12 c14 -6 25 -20
25 -31 0 -14 -3 -17 -12 -9 -7 6 -26 12 -43 14 -19 2 -31 9 -33 21 -4 20 24
23 63 5z m1495 -29 c0 -6 -8 -8 -18 -5 -13 4 -18 0 -19 -15 -2 -18 0 -19 14
-7 14 11 15 11 11 -2 -3 -10 -15 -14 -34 -12 -43 5 -50 18 -18 36 34 18 64 21
64 5z m-1492 -21 c21 -21 14 -40 -8 -21 -21 18 -26 33 -12 33 4 0 13 -5 20
-12z m252 -71 c0 -7 -11 -14 -25 -15 -16 -1 -25 3 -25 13 0 9 10 15 25 15 14
0 25 -6 25 -13z m1076 0 c23 4 34 2 34 -7 0 -8 -8 -10 -25 -6 -14 4 -25 2 -25
-4 0 -5 5 -10 11 -10 5 0 8 -4 4 -10 -8 -13 -45 20 -44 40 0 9 3 10 5 3 3 -7
18 -9 40 -6z m-1139 -39 c2 -17 0 -19 -7 -8 -5 8 -6 18 -4 22 8 12 10 10 11
-14z m-27 2 c0 -5 -4 -10 -9 -10 -6 0 -13 5 -16 10 -3 6 1 10 9 10 9 0 16 -4
16 -10z m1093 -3 c-2 -4 -3 -11 -3 -17 0 -5 -9 -10 -20 -10 -19 0 -27 19 -14
32 7 8 40 3 37 -5z m-937 -52 c21 -21 17 -27 -8 -11 -31 19 -78 29 -78 17 0
-6 -8 -7 -17 -4 -15 6 -15 7 3 14 25 11 83 1 100 -16z m908 4 c4 6 13 11 19
11 7 0 4 -7 -6 -15 -20 -15 -51 -9 -41 7 4 6 9 6 14 -2 5 -9 9 -9 14 -1z
m-929 -29 c3 -5 -1 -10 -9 -10 -8 0 -18 5 -21 10 -3 6 1 10 9 10 8 0 18 -4 21
-10z m95 -40 c0 -5 -4 -10 -9 -10 -6 0 -13 5 -16 10 -3 6 1 10 9 10 9 0 16 -4
16 -10z m100 -6 c0 -14 -3 -14 -15 -4 -8 7 -15 14 -15 16 0 2 7 4 15 4 8 0 15
-7 15 -16z m608 6 c11 -1 7 -6 -12 -16 -20 -11 -31 -13 -39 -5 -6 6 -20 12
-31 12 -15 1 -12 4 9 9 17 4 36 6 43 4 8 -2 21 -4 30 -4z m-528 -40 c0 -21
-24 -27 -49 -11 -19 12 -4 31 25 31 17 0 24 -5 24 -20z m420 10 c0 -5 -4 -10
-10 -10 -5 0 -10 5 -10 10 0 6 5 10 10 10 6 0 10 -4 10 -10z m-70 -15 c-7 -8
-16 -15 -21 -15 -5 0 -9 7 -9 15 0 9 9 15 21 15 18 0 19 -2 9 -15z m-90 -23
c20 -7 11 -9 -40 -7 -87 4 -87 4 -70 15 17 11 73 7 110 -8z m-176 -15 c-9 -5
-32 -4 -52 1 -37 10 -36 10 15 8 33 -1 46 -4 37 -9z m129 -14 c-18 -2 -48 -2
-65 0 -18 2 -4 4 32 4 36 0 50 -2 33 -4z"/>
<path d="M3735 5820 c3 -5 10 -10 16 -10 5 0 9 5 9 10 0 6 -7 10 -16 10 -8 0
-12 -4 -9 -10z"/>
<path d="M5760 5020 c0 -5 5 -10 10 -10 6 0 10 5 10 10 0 6 -4 10 -10 10 -5 0
-10 -4 -10 -10z"/>
<path d="M1928 4730 c-120 -20 -199 -66 -235 -134 -21 -40 -30 -252 -14 -313
29 -106 113 -166 306 -215 153 -39 176 -60 160 -145 -4 -23 -16 -40 -38 -54
-29 -18 -43 -20 -142 -15 -63 3 -141 14 -182 26 -40 11 -75 20 -77 20 -3 0
-21 -52 -42 -116 -29 -95 -34 -118 -23 -125 23 -14 179 -48 279 -60 170 -20
343 6 422 64 41 30 86 99 99 152 6 25 9 96 7 167 -3 102 -7 130 -25 164 -44
83 -127 129 -259 145 -169 20 -196 34 -196 105 0 34 6 52 20 67 19 19 34 20
214 21 l193 1 14 113 c8 61 12 114 10 117 -20 19 -396 31 -491 15z"/>
<path d="M5758 4729 c-103 -11 -168 -40 -223 -101 -77 -85 -80 -105 -80 -478
0 -302 1 -327 19 -357 12 -20 25 -29 35 -26 14 4 14 3 1 -6 -12 -8 -9 -16 20
-48 49 -52 59 -60 110 -87 49 -26 157 -46 246 -46 77 0 236 20 251 32 7 5 17
7 24 3 7 -5 9 -1 6 11 -3 11 -8 42 -12 69 -4 28 -11 69 -17 91 l-10 42 -61
-15 c-76 -19 -248 -22 -302 -5 -74 23 -74 21 -77 365 -2 168 0 301 3 296 3 -5
14 0 24 11 34 37 117 54 240 47 106 -6 161 -13 176 -22 6 -5 20 39 39 125 14
67 13 83 -6 76 -9 -4 -22 -2 -28 3 -11 9 -231 32 -278 30 -13 -1 -58 -5 -100
-10z m385 -49 c4 -3 -9 -14 -28 -23 -19 -9 -35 -13 -35 -8 0 5 7 11 15 15 8 3
15 10 15 16 0 5 -7 10 -15 10 -8 0 -15 4 -15 10 0 9 44 -5 63 -20z m-388 0
c-3 -5 -10 -10 -16 -10 -5 0 -9 5 -9 10 0 6 7 10 16 10 8 0 12 -4 9 -10z m-85
-31 c-11 -8 -12 -12 -2 -16 15 -6 16 -33 1 -33 -5 0 -7 -4 -4 -10 4 -6 -8 -10
-30 -10 -33 0 -36 2 -33 26 2 19 14 33 37 45 35 19 58 17 31 -2z m447 -31 c-3
-8 -6 -5 -6 6 -1 11 2 17 5 13 3 -3 4 -12 1 -19z m-537 -17 c-10 -19 -34 -33
-43 -25 -7 7 36 51 46 47 4 -3 3 -12 -3 -22z m-60 -58 c0 -27 -3 -34 -11 -26
-7 7 -9 23 -5 37 9 37 16 32 16 -11z m168 -8 c-3 -3 -9 2 -12 12 -6 14 -5 15
5 6 7 -7 10 -15 7 -18z m44 11 c10 -7 15 -16 11 -19 -11 -12 -23 -8 -23 7 0 8
-6 17 -12 19 -7 3 -8 6 -3 6 6 0 18 -6 27 -13z m51 7 c-7 -2 -19 -2 -25 0 -7
3 -2 5 12 5 14 0 19 -2 13 -5z m317 -5 c0 -4 -4 -8 -9 -8 -6 0 -12 4 -15 8 -3
5 1 9 9 9 8 0 15 -4 15 -9z m-92 -5 c-15 -2 -42 -2 -60 0 -18 2 -6 4 27 4 33
0 48 -2 33 -4z m-221 -9 c-3 -3 -12 -4 -19 -1 -8 3 -5 6 6 6 11 1 17 -2 13 -5z
m-294 -51 c-7 -3 -14 -14 -14 -26 -1 -18 -2 -19 -6 -4 -5 19 16 52 26 41 3 -4
0 -9 -6 -11z m27 -49 c0 -8 -4 -12 -10 -9 -5 3 -10 10 -10 16 0 5 5 9 10 9 6
0 10 -7 10 -16z m76 -21 c-10 -10 -19 5 -10 18 6 11 8 11 12 0 2 -7 1 -15 -2
-18z m-89 -218 l-1 -110 -6 120 c-5 102 -6 110 -9 50 -2 -38 -6 -59 -8 -45 -3
13 -1 63 3 110 l8 85 7 -50 c4 -27 7 -99 6 -160z m146 -129 c-9 -227 -18 -202
-21 64 -2 138 0 256 5 262 13 21 23 -174 16 -326z m-56 57 c-2 -21 -4 -4 -4
37 0 41 2 58 4 38 2 -21 2 -55 0 -75z m-112 -38 c-4 -37 -9 -65 -11 -62 -3 2
-2 34 2 71 4 37 9 64 12 62 2 -3 1 -35 -3 -71z m34 -117 c-1 -55 -8 -102 -16
-115 -12 -20 -11 -23 2 -23 9 0 15 -9 14 -22 0 -13 -3 -17 -6 -10 -2 6 -8 10
-13 7 -15 -9 -17 31 -4 80 7 28 13 78 14 113 0 34 3 62 6 62 3 0 5 -42 3 -92z
m-42 -30 c-2 -13 -4 -3 -4 22 0 25 2 35 4 23 2 -13 2 -33 0 -45z m129 -26 c6
-4 14 -23 18 -42 3 -19 3 -29 0 -22 -3 6 -11 9 -16 6 -6 -4 -8 -2 -5 3 4 6 0
13 -8 17 -8 3 -15 15 -15 26 0 21 7 25 26 12z m-127 -29 c0 -25 -1 -25 -8 -8
-5 11 -7 23 -4 28 8 14 13 7 12 -20z m216 -63 c3 -5 1 -10 -4 -10 -6 0 -11 5
-11 10 0 6 2 10 4 10 3 0 8 -4 11 -10z m-27 -34 c-7 -8 -15 -12 -17 -11 -5 6
10 25 20 25 5 0 4 -6 -3 -14z m61 -12 c3 -16 1 -17 -13 -5 -19 16 -21 34 -3
29 6 -3 14 -13 16 -24z m378 19 c-4 -3 0 -14 9 -24 9 -10 14 -28 11 -41 -4
-21 -4 -20 -6 5 -1 30 -17 37 -24 10 -3 -10 -5 -4 -6 14 -1 27 -4 30 -23 25
-14 -3 -19 -2 -14 6 4 7 19 12 33 12 15 0 23 -3 20 -7z m-320 -9 c-3 -3 -12
-4 -19 -1 -8 3 -5 6 6 6 11 1 17 -2 13 -5z m-97 -14 c0 -5 -4 -10 -10 -10 -5
0 -10 5 -10 10 0 6 5 10 10 10 6 0 10 -4 10 -10z m168 3 c-10 -2 -28 -2 -40 0
-13 2 -5 4 17 4 22 1 32 -1 23 -4z m59 1 c-3 -3 -12 -4 -19 -1 -8 3 -5 6 6 6
11 1 17 -2 13 -5z m105 -2 c-12 -8 -72 -4 -72 4 0 2 19 4 43 4 25 0 37 -4 29
-8z m-443 -48 c3 -16 1 -17 -13 -5 -19 16 -21 34 -3 29 6 -3 14 -13 16 -24z
m71 -9 c31 -16 40 -35 18 -35 -9 0 -8 -4 2 -10 9 -6 10 -10 3 -10 -21 0 -43
12 -37 21 3 5 -3 9 -14 9 -24 0 -32 8 -25 26 7 18 17 18 53 -1z m485 -35 c-3
-5 -12 -10 -18 -10 -7 0 -6 4 3 10 19 12 23 12 15 0z"/>
<path d="M3765 4430 c-48 -10 -156 -49 -169 -61 -19 -17 -33 -9 -42 24 l-10
32 -97 3 -97 3 0 -600 c0 -565 1 -599 18 -596 9 2 63 12 120 21 l102 17 0 164
c0 124 3 163 13 163 6 -1 41 -7 77 -15 103 -23 177 -19 238 11 61 30 128 102
143 153 7 23 9 131 7 298 l-3 261 -30 44 c-54 78 -143 103 -270 78z m49 -221
l26 -20 0 -184 0 -185 -25 -16 c-21 -14 -42 -16 -109 -12 -46 3 -89 9 -95 12
-7 5 -11 69 -11 192 l0 185 53 24 c65 31 125 32 161 4z"/>
<path d="M4355 4430 c-96 -21 -169 -71 -208 -144 -21 -39 -22 -54 -22 -261 0
-208 1 -223 23 -270 27 -59 73 -110 122 -135 107 -55 346 -53 477 5 48 22 55
28 49 47 -3 13 -11 49 -18 81 -14 64 -14 64 -98 42 -71 -19 -210 -19 -255 -1
-39 16 -68 64 -63 104 l3 27 229 3 229 2 -6 120 c-9 187 -56 297 -150 357 -38
24 -52 27 -157 29 -63 2 -133 -1 -155 -6z m175 -188 c40 -20 60 -53 60 -99 l0
-33 -115 0 -115 0 0 41 c0 52 14 77 53 94 43 19 75 18 117 -3z"/>
<path d="M5226 4399 c-54 -21 -102 -39 -107 -39 -5 0 -12 15 -17 33 l-8 32
-102 3 -102 3 2 -418 3 -418 118 -3 117 -3 0 260 0 261 68 30 c37 17 83 39
102 50 l35 19 3 107 c1 59 -1 111 -5 115 -4 4 -52 -10 -107 -32z"/>
<path d="M6385 4423 c-66 -8 -123 -17 -128 -22 -7 -7 25 -147 37 -158 3 -4 29
-1 57 5 28 7 92 12 142 12 74 0 98 -4 124 -20 38 -23 45 -45 41 -125 l-3 -60
-140 0 c-127 0 -144 -2 -183 -23 -23 -12 -40 -27 -37 -32 3 -5 0 -7 -8 -5 -8
4 -21 -10 -35 -38 -17 -34 -22 -62 -22 -124 0 -100 29 -167 93 -209 37 -25 51
-28 118 -29 42 0 82 5 90 11 8 6 30 14 49 18 19 3 47 13 63 21 25 13 28 12 43
-10 14 -22 21 -23 107 -22 l92 2 0 330 c0 328 0 330 -24 375 -32 61 -58 85
-114 104 -59 20 -193 20 -362 -1z m245 -9 c-32 -7 -211 -10 -194 -3 11 4 62 7
114 7 52 0 88 -2 80 -4z m127 -10 c-3 -3 -12 -4 -19 -1 -8 3 -5 6 6 6 11 1 17
-2 13 -5z m-460 -26 c-3 -8 -6 -5 -6 6 -1 11 2 17 5 13 3 -3 4 -12 1 -19z m43
-52 c-8 -8 -14 -6 -20 4 -7 11 -10 4 -11 -25 -1 -22 -3 -31 -6 -20 -3 11 -9
24 -14 30 -5 5 -9 14 -9 20 0 5 5 3 10 -5 8 -12 10 -11 10 6 0 30 11 36 32 17
13 -12 15 -20 8 -27z m490 14 c0 -5 -4 -10 -10 -10 -5 0 -10 5 -10 10 0 6 5
10 10 10 6 0 10 -4 10 -10z m-261 -26 c2 -2 -10 -4 -27 -4 -18 0 -32 4 -32 9
0 9 49 5 59 -5z m-90 -10 c9 -8 -75 -3 -88 5 -8 5 5 7 35 4 27 -3 51 -7 53 -9z
m318 -6 c-3 -8 -6 -5 -6 6 -1 11 2 17 5 13 3 -3 4 -12 1 -19z m28 -19 c-4 -5
-1 -16 5 -24 9 -11 9 -15 1 -15 -6 0 -11 6 -11 13 0 8 -4 7 -11 -3 -9 -12 -10
-12 -5 3 3 10 6 31 6 45 1 23 2 25 11 9 5 -9 7 -22 4 -28z m22 9 c-3 -7 -5 -2
-5 12 0 14 2 19 5 13 2 -7 2 -19 0 -25z m-487 6 c0 -2 -9 -4 -20 -4 -11 0 -20
4 -20 9 0 5 9 7 20 4 11 -3 20 -7 20 -9z m250 6 c12 -8 11 -10 -7 -10 -13 0
-23 5 -23 10 0 13 11 13 30 0z m-46 -18 c2 -4 -12 -6 -32 -4 -56 5 -62 10 -15
11 23 1 44 -3 47 -7z m-146 -9 c-10 -2 -28 -2 -40 0 -13 2 -5 4 17 4 22 1 32
-1 23 -4z m222 -3 c0 -5 -7 -10 -16 -10 -8 0 -12 5 -9 10 3 6 10 10 16 10 5 0
9 -4 9 -10z m-293 -6 c-3 -3 -12 -4 -19 -1 -8 3 -5 6 6 6 11 1 17 -2 13 -5z
m330 -56 c-3 -7 -5 -2 -5 12 0 14 2 19 5 13 2 -7 2 -19 0 -25z m42 -18 c1 -13
0 -13 -9 0 -5 8 -9 24 -9 35 l0 20 9 -20 c5 -11 9 -27 9 -35z m-2 -102 c-3 -8
-6 -5 -6 6 -1 11 2 17 5 13 3 -3 4 -12 1 -19z m-62 -61 c-19 -11 -18 -12 10
-19 22 -5 18 -6 -15 -3 -51 5 -247 8 -300 5 l-35 -3 35 -7 35 -6 -35 -11 c-30
-8 -35 -14 -33 -39 2 -24 0 -26 -8 -11 -6 9 -7 27 -3 40 5 12 8 26 9 31 0 17
92 36 170 34 l80 -2 -85 -6 -85 -6 118 -2 c95 -2 121 1 134 13 8 9 18 13 22
10 3 -4 -3 -12 -14 -18z m59 -3 c9 -24 7 -27 -9 -10 -17 17 -19 26 -6 26 5 0
12 -7 15 -16z m-444 -89 c-7 -9 -15 -13 -17 -11 -7 7 7 26 19 26 6 0 6 -6 -2
-15z m406 -42 c-10 -10 -19 5 -10 18 6 11 8 11 12 0 2 -7 1 -15 -2 -18z m-26
-60 c1 -73 2 -77 17 -58 15 20 15 19 9 -5 -3 -14 -6 -29 -6 -35 0 -5 -13 -10
-30 -10 -34 0 -38 11 -12 32 15 12 9 13 -44 8 -34 -4 -79 -2 -101 4 -34 9 -41
16 -45 41 -10 69 32 100 140 100 l72 0 0 -77z m-220 57 c0 -5 -7 -10 -15 -10
-8 0 -15 5 -15 10 0 6 7 10 15 10 8 0 15 -4 15 -10z m-8 -92 c2 -21 1 -38 -3
-38 -11 0 -17 36 -11 67 6 31 9 26 14 -29z m275 5 c-3 -10 -5 -4 -5 12 0 17 2
24 5 18 2 -7 2 -21 0 -30z m-378 -63 c-1 -8 -5 -26 -9 -40 -8 -24 -8 -24 -9 6
-1 16 -6 35 -12 41 -9 9 -7 12 10 10 12 -1 21 -8 20 -17z m440 -26 c6 4 11 5
11 2 0 -3 -9 -10 -20 -16 -17 -9 -20 -8 -20 12 0 17 3 19 9 9 5 -7 14 -10 20
-7z m-482 -26 c-3 -7 -5 -2 -5 12 0 14 2 19 5 13 2 -7 2 -19 0 -25z m113 -10
c0 -13 -38 -29 -45 -18 -3 5 0 10 7 10 8 0 6 5 -4 11 -10 5 -18 17 -18 25 0
13 4 13 30 -3 17 -9 30 -21 30 -25z m200 2 c0 -5 7 -10 15 -10 8 0 15 -4 15
-10 0 -5 -7 -10 -15 -10 -8 0 -15 5 -15 10 0 6 -21 11 -47 11 l-48 2 40 7 c22
4 43 8 48 9 4 0 7 -3 7 -9z m126 -21 l1 -32 -18 24 c-18 24 -17 39 4 39 7 0
13 -14 13 -31z m-136 -13 c0 -11 -19 -15 -25 -6 -3 5 1 10 9 10 9 0 16 -2 16
-4z m-233 -12 c-3 -3 -12 -4 -19 -1 -8 3 -5 6 6 6 11 1 17 -2 13 -5z"/>
<path d="M7860 4435 c-8 -2 -61 -9 -117 -16 -117 -14 -112 -7 -87 -115 l17
-70 66 14 c37 7 104 12 153 10 112 -4 139 -22 151 -97 5 -28 5 -63 0 -77 l-9
-26 -139 -2 c-134 -2 -142 -3 -192 -30 -70 -39 -88 -81 -87 -196 1 -88 17
-144 50 -171 16 -12 17 -12 11 4 -4 11 -3 16 4 12 5 -4 7 -14 4 -24 -3 -12 6
-22 32 -36 55 -30 168 -26 257 9 72 28 96 28 96 1 0 -13 15 -16 101 -14 l100
1 -4 327 c-3 352 -6 374 -57 431 -26 29 -33 32 -41 20 -8 -12 -9 -12 -7 4 5
30 -52 45 -177 44 -60 0 -117 -2 -125 -3z m43 -22 c-13 -2 -33 -2 -45 0 -13 2
-3 4 22 4 25 0 35 -2 23 -4z m120 -5 c-13 -6 -23 -15 -23 -20 0 -11 -67 -10
-75 1 -5 10 60 28 100 29 18 1 18 0 -2 -10z m102 2 l20 -9 -20 1 c-11 0 -33 4
-50 8 l-30 8 30 0 c17 0 39 -3 50 -8z m-445 -68 c0 -7 -4 -10 -10 -7 -5 3 -10
16 -10 28 0 18 2 19 10 7 5 -8 10 -21 10 -28z m507 -12 c-3 -43 -14 -53 -22
-20 -3 11 0 20 6 20 6 0 8 9 4 20 -4 11 -2 20 4 20 6 0 10 -17 8 -40z m-369
13 c-10 -2 -18 -9 -18 -15 0 -5 7 -7 16 -4 8 3 12 2 9 -4 -7 -11 8 -14 19 -3
12 12 50 11 76 -3 24 -13 24 -13 -10 -8 -19 3 -60 1 -90 -4 -30 -6 -56 -9 -58
-7 -8 7 43 55 57 54 13 -1 12 -2 -1 -6z m-116 -45 c-11 -11 -32 -3 -32 12 0 4
9 6 21 3 13 -4 17 -9 11 -15z m275 16 c-3 -3 -12 -4 -19 -1 -8 3 -5 6 6 6 11
1 17 -2 13 -5z m23 -14 c0 -5 -8 -10 -17 -10 -15 0 -16 2 -3 10 19 12 20 12
20 0z m-85 -15 c-23 -8 -83 -10 -79 -3 3 4 24 8 47 7 23 0 38 -2 32 -4z m302
-15 c9 -13 9 -21 2 -26 -13 -7 -15 -5 -23 24 -9 27 5 29 21 2z m-459 3 c-10
-2 -26 -2 -35 0 -10 3 -2 5 17 5 19 0 27 -2 18 -5z m219 1 c-3 -3 -12 -4 -19
-1 -8 3 -5 6 6 6 11 1 17 -2 13 -5z m270 -91 c-2 -16 -4 -3 -4 27 0 30 2 43 4
28 2 -16 2 -40 0 -55z m-171 22 c0 -21 -4 -31 -9 -26 -8 8 -2 61 6 61 2 0 3
-16 3 -35z m84 -34 c0 -6 -4 -13 -10 -16 -5 -3 -10 1 -10 9 0 9 5 16 10 16 6
0 10 -4 10 -9z m-93 -73 c-2 -13 -4 -5 -4 17 -1 22 1 32 4 23 2 -10 2 -28 0
-40z m51 -36 c2 -7 -4 -12 -13 -12 -9 0 -14 -4 -11 -9 3 -4 -5 -7 -17 -7 -12
1 -29 -3 -37 -8 -9 -6 -7 -1 4 11 10 13 23 20 27 17 5 -3 12 2 15 11 7 17 25
16 32 -3z m99 -219 c-1 -43 -3 -8 -3 77 0 85 2 120 3 78 2 -43 2 -113 0 -155z
m-274 190 c-29 -2 -78 -2 -110 0 -32 2 -8 3 52 3 61 0 87 -1 58 -3z m32 -17
c17 -1 -28 -4 -100 -5 -71 0 -141 -4 -155 -7 l-25 -6 24 14 c23 12 159 14 256
4z m24 -21 c-8 -7 -238 -9 -246 -2 -3 4 51 7 122 7 71 0 126 -2 124 -5z m248
-177 c-2 -35 -3 -7 -3 62 0 69 1 97 3 63 2 -35 2 -91 0 -125z m-557 121 c0
-11 -4 -18 -9 -14 -6 3 -15 -3 -21 -12 -9 -14 -10 -15 -7 -2 3 9 0 22 -6 29
-9 10 -8 12 6 7 11 -4 17 -1 17 9 0 8 5 12 10 9 6 -3 10 -15 10 -26z m465 0
c10 -15 -1 -23 -20 -15 -9 3 -13 10 -10 16 8 13 22 13 30 -1z m-298 -25 c-3
-3 -12 -4 -19 -1 -8 3 -5 6 6 6 11 1 17 -2 13 -5z m228 -3 c3 -6 -4 -9 -15 -8
-11 1 -20 5 -20 9 0 11 28 10 35 -1z m-46 -66 c0 -35 -4 -67 -9 -70 -4 -3 -41
-8 -82 -11 -83 -6 -121 7 -126 45 -11 72 28 100 140 101 l77 0 0 -65z m-260
28 c-1 -16 -5 -41 -9 -58 -5 -23 -7 -16 -6 27 1 32 4 58 9 58 4 0 6 -12 6 -27z
m-140 -40 c0 -44 -2 -53 -9 -36 -8 20 -3 93 6 93 2 0 4 -26 3 -57z m166 7 c-9
-41 -17 -33 -9 9 4 17 9 30 11 27 3 -2 2 -19 -2 -36z m280 -78 c-7 -8 -31 85
-27 103 3 12 10 -4 17 -40 7 -33 11 -61 10 -63z m75 78 c0 -35 -16 -48 -25
-20 -8 25 3 62 16 55 5 -4 9 -19 9 -35z m-490 -17 c0 -7 -4 -13 -10 -13 -5 0
-10 12 -10 28 0 21 2 24 10 12 5 -8 10 -21 10 -27z m390 -53 c0 -5 -4 -10 -10
-10 -5 0 -10 5 -10 10 0 6 5 10 10 10 6 0 10 -4 10 -10z m-400 -14 c0 -3 -4
-8 -10 -11 -5 -3 -10 -1 -10 4 0 6 5 11 10 11 6 0 10 -2 10 -4z m46 -46 c24 0
29 -1 43 -13 11 -9 8 -13 -15 -19 -19 -5 -33 -3 -44 7 -9 8 -20 12 -23 8 -9
-8 -9 15 0 47 l7 24 9 -27 c5 -15 15 -27 23 -27z m522 1 c2 -25 -2 -31 -17
-31 -28 0 -35 17 -21 51 15 36 35 25 38 -20z m19 -28 c-2 -16 -4 -5 -4 22 0
28 2 40 4 28 2 -13 2 -35 0 -50z m-229 -18 c12 -11 -20 -10 -58 1 l-45 13 50
-6 c28 -3 51 -7 53 -8z m62 6 c0 -5 -9 -7 -20 -4 -11 3 -20 7 -20 9 0 2 9 4
20 4 11 0 20 -4 20 -9z m-330 -11 c8 -5 11 -12 7 -16 -4 -4 -15 0 -24 9 -18
18 -8 23 17 7z m400 0 c0 -5 -2 -10 -4 -10 -3 0 -8 5 -11 10 -3 6 -1 10 4 10
6 0 11 -4 11 -10z m-203 -6 c-3 -3 -12 -4 -19 -1 -8 3 -5 6 6 6 11 1 17 -2 13
-5z m191 -21 c-10 -2 -28 -2 -40 0 -13 2 -5 4 17 4 22 1 32 -1 23 -4z m100 0
c-10 -2 -28 -2 -40 0 -13 2 -5 4 17 4 22 1 32 -1 23 -4z"/>
<path d="M2507 4423 c-11 -10 -8 -709 2 -736 39 -101 171 -124 388 -67 62 17
118 30 123 30 5 0 12 -11 16 -24 6 -26 40 -36 132 -36 l52 0 0 420 0 420 -120
0 -120 0 0 -260 c0 -308 2 -271 -18 -294 -43 -47 -145 -71 -193 -46 -18 10
-19 24 -19 305 l0 295 -118 0 c-65 0 -122 -3 -125 -7z"/>
<path d="M7150 4421 c-47 -10 -69 -23 -117 -71 -31 -31 -66 -97 -58 -110 3 -6
2 -17 -3 -26 -15 -26 7 -113 40 -164 35 -53 100 -92 183 -111 116 -26 126 -30
135 -55 16 -42 12 -79 -13 -102 -21 -20 -31 -21 -118 -18 -51 3 -114 12 -138
20 -24 9 -47 16 -50 16 -7 0 -51 -127 -51 -147 0 -13 45 -33 75 -33 13 0 25
-5 27 -10 5 -16 164 -31 248 -24 88 8 121 23 172 77 45 47 68 116 68 203 0
150 -57 209 -213 225 -51 4 -95 9 -99 9 -4 0 -17 10 -30 23 -27 26 -34 85 -14
113 16 21 44 22 216 9 101 -7 106 -3 116 98 l6 64 -28 7 c-45 10 -315 16 -354
7z m228 -9 c13 -4 -26 -7 -86 -7 -61 0 -105 3 -98 7 13 9 152 9 184 0z m89 -8
c-3 -3 -12 -4 -19 -1 -8 3 -5 6 6 6 11 1 17 -2 13 -5z m-121 -17 c4 -4 -25 -7
-64 -7 -40 0 -72 4 -72 8 0 10 126 9 136 -1z m-222 -68 c-9 -10 -22 -19 -28
-19 -6 0 0 7 12 16 12 8 23 27 23 42 2 25 2 25 6 4 3 -14 -3 -32 -13 -43z m-4
42 c0 -13 -29 -41 -43 -41 -6 0 0 11 13 24 29 29 30 29 30 17z m-59 -17 c-15
-11 -21 -23 -18 -35 3 -11 1 -19 -4 -19 -5 0 -7 -31 -6 -69 1 -38 -1 -67 -5
-65 -3 2 -8 -1 -10 -6 -3 -9 -2 89 1 146 1 17 41 64 54 64 6 0 1 -7 -12 -16z
m357 -9 c-10 -11 -48 -14 -48 -4 0 5 12 9 27 9 14 0 24 -2 21 -5z m32 -44 c-6
-13 -20 -20 -33 -20 l-22 2 23 4 c23 5 31 23 10 24 -7 0 -4 4 7 8 26 11 29 7
15 -18z m-170 9 c0 -5 -2 -10 -4 -10 -3 0 -8 5 -11 10 -3 6 -1 10 4 10 6 0 11
-4 11 -10z m80 0 c0 -13 -20 -13 -40 0 -12 8 -9 10 13 10 15 0 27 -4 27 -10z
m140 -4 c0 -3 -4 -8 -10 -11 -5 -3 -10 -1 -10 4 0 6 5 11 10 11 6 0 10 -2 10
-4z m-157 -23 c-13 -2 -33 -2 -45 0 -13 2 -3 4 22 4 25 0 35 -2 23 -4z m-173
-69 c0 -19 -4 -33 -8 -30 -8 5 -4 66 4 66 2 0 4 -16 4 -36z m-173 -11 c-3 -10
-5 -4 -5 12 0 17 2 24 5 18 2 -7 2 -21 0 -30z m130 5 c-3 -8 -6 -5 -6 6 -1 11
2 17 5 13 3 -3 4 -12 1 -19z m-130 -65 c-3 -10 -5 -4 -5 12 0 17 2 24 5 18 2
-7 2 -21 0 -30z m168 -3 c3 -5 1 -10 -4 -10 -6 0 -11 5 -11 10 0 6 2 10 4 10
3 0 8 -4 11 -10z m-134 -53 c-11 -11 -31 -1 -31 16 0 7 4 6 10 -3 7 -12 10 -8
10 15 1 29 1 30 11 6 6 -15 6 -28 0 -34z m96 31 c-3 -8 -6 -5 -6 6 -1 11 2 17
5 13 3 -3 4 -12 1 -19z m100 -24 c-3 -3 -12 -4 -19 -1 -8 3 -5 6 6 6 11 1 17
-2 13 -5z m196 -51 c-7 -2 -19 -2 -25 0 -7 3 -2 5 12 5 14 0 19 -2 13 -5z
m-179 -24 c-3 -5 -10 -7 -15 -4 -5 4 -9 -1 -9 -9 0 -18 -9 -20 -30 -6 -13 8
-12 10 3 10 9 0 16 3 16 8 -3 16 2 20 21 15 11 -3 17 -9 14 -14z m-93 -19 c10
0 19 -4 19 -10 0 -15 -33 -11 -55 7 -18 14 -18 15 -2 9 10 -3 27 -6 38 -6z
m86 -36 c-3 -3 -12 -4 -19 -1 -8 3 -5 6 6 6 11 1 17 -2 13 -5z m303 -78 c0
-52 -6 -43 -13 18 -3 30 -1 43 4 35 5 -8 9 -32 9 -53z m-190 34 c0 -5 -2 -10
-4 -10 -3 0 -8 5 -11 10 -3 6 -1 10 4 10 6 0 11 -4 11 -10z m7 -42 c-3 -8 -6
-5 -6 6 -1 11 2 17 5 13 3 -3 4 -12 1 -19z m-1 -93 c-3 -8 -10 -15 -15 -15 -5
0 -4 11 2 25 12 25 23 16 13 -10z m-335 -40 c5 4 9 0 9 -9 0 -8 3 -23 6 -33 5
-15 4 -15 -5 -3 -9 13 -11 13 -12 0 -1 -21 -17 30 -17 55 0 17 1 17 5 2 2 -9
9 -15 14 -12z m476 19 c-3 -3 -12 -4 -19 -1 -8 3 -5 6 6 6 11 1 17 -2 13 -5z
m-27 -24 c0 -5 -4 -10 -10 -10 -5 0 -10 5 -10 10 0 6 5 10 10 10 6 0 10 -4 10
-10z m-64 -20 c22 0 14 -54 -8 -58 -10 -2 -18 1 -18 7 0 5 8 12 18 15 9 3 5 4
-10 2 -23 -3 -28 1 -28 20 0 22 22 39 28 23 2 -5 10 -9 18 -9z m99 10 c-3 -5
-11 -10 -16 -10 -6 0 -7 5 -4 10 3 6 11 10 16 10 6 0 7 -4 4 -10z m-513 -32
c-7 -7 -12 -8 -12 -2 0 14 12 26 19 19 2 -3 -1 -11 -7 -17z m483 -8 c-3 -5
-12 -10 -18 -10 -7 0 -6 4 3 10 19 12 23 12 15 0z m-355 -20 c0 -5 -2 -10 -4
-10 -3 0 -8 5 -11 10 -3 6 -1 10 4 10 6 0 11 -4 11 -10z m-37 -20 c20 -8 37
-17 37 -21 0 -7 -109 27 -119 36 -7 8 46 -2 82 -15z m291 -16 c3 -8 2 -12 -4
-9 -6 3 -10 10 -10 16 0 14 7 11 14 -7z"/>
<path d="M8517 4417 c-60 -20 -129 -86 -150 -143 -22 -64 -22 -111 3 -178 22
-58 65 -104 122 -130 39 -17 105 -36 131 -36 29 0 19 20 -10 21 -26 2 -26 2
-4 6 15 3 31 -3 45 -16 11 -11 32 -30 45 -42 20 -18 23 -28 18 -66 -2 -25 -10
-50 -16 -56 -18 -18 -131 -20 -206 -2 -114 26 -106 29 -132 -54 -13 -41 -22
-76 -19 -78 2 -2 28 -13 57 -24 70 -26 210 -40 308 -30 67 7 85 13 124 42 84
63 128 212 92 318 -18 56 -25 64 -43 52 -9 -5 -7 -14 8 -32 14 -15 17 -25 9
-28 -6 -2 -15 3 -20 10 -7 11 -9 10 -9 -3 0 -10 -6 -18 -14 -18 -12 0 -22 22
-26 55 -1 6 -8 14 -16 18 -8 4 -14 13 -14 19 0 6 9 3 20 -7 13 -12 27 -15 45
-11 35 9 31 22 -16 52 -32 20 -62 28 -137 36 -127 13 -142 23 -142 93 0 73 7
76 156 65 177 -14 161 -18 173 43 19 103 19 115 -3 122 -45 13 -340 15 -379 2z
m181 -4 c-15 -2 -42 -2 -60 0 -18 2 -6 4 27 4 33 0 48 -2 33 -4z m120 -10
c-10 -2 -26 -2 -35 0 -10 3 -2 5 17 5 19 0 27 -2 18 -5z m-193 -14 c11 -17 -1
-21 -15 -4 -8 9 -8 15 -2 15 6 0 14 -5 17 -11z m245 -16 c0 -10 -5 -25 -10
-33 -9 -13 -11 -13 -20 0 -17 25 -12 50 10 50 12 0 20 -7 20 -17z m17 -55 c-2
-13 -4 -3 -4 22 0 25 2 35 4 23 2 -13 2 -33 0 -45z m-98 17 c2 -13 -1 -16 -13
-12 -9 4 -16 2 -16 -3 0 -6 -10 -9 -22 -9 -18 1 -19 2 -5 6 9 2 15 9 12 14 -9
14 3 28 23 25 9 -2 19 -11 21 -21z m-323 -8 c9 3 14 -2 14 -15 0 -12 -9 -23
-20 -27 -11 -3 -20 -12 -20 -19 0 -8 -7 -19 -16 -27 -11 -9 -15 -25 -12 -51 2
-23 0 -37 -7 -35 -5 2 -10 27 -10 55 1 28 -2 46 -7 40 -4 -7 -10 -9 -14 -6 -4
4 9 22 29 39 23 20 33 37 30 48 -5 12 -3 13 7 4 7 -6 19 -9 26 -6z m334 -27
c0 -5 -10 -10 -22 -9 -22 0 -22 1 -3 9 11 5 21 9 23 9 1 1 2 -3 2 -9z m-203
-6 c-3 -3 -12 -4 -19 -1 -8 3 -5 6 6 6 11 1 17 -2 13 -5z m116 -1 c-7 -2 -21
-2 -30 0 -10 3 -4 5 12 5 17 0 24 -2 18 -5z m-106 -19 c-3 -3 -12 -4 -19 -1
-8 3 -5 6 6 6 11 1 17 -2 13 -5z m186 -1 c-7 -2 -19 -2 -25 0 -7 3 -2 5 12 5
14 0 19 -2 13 -5z m-288 -13 c3 -5 1 -10 -4 -10 -6 0 -11 5 -11 10 0 6 2 10 4
10 3 0 8 -4 11 -10z m5 -111 c0 -5 -4 -9 -10 -9 -5 0 -10 7 -10 16 0 8 5 12
10 9 6 -3 10 -10 10 -16z m-111 -49 c0 -13 -1 -13 -8 0 -5 8 -12 26 -15 40
l-7 25 15 -25 c9 -14 15 -32 15 -40z m171 -1 c0 -4 10 -10 23 -12 12 -3 4 -4
-17 -3 -22 1 -41 7 -43 13 -3 7 4 11 16 10 12 -1 21 -4 21 -8z m-127 -53 c4
-10 1 -13 -9 -9 -7 3 -14 9 -14 14 0 14 17 10 23 -5z m37 -11 c0 -8 -4 -15
-10 -15 -5 0 -7 7 -4 15 4 8 8 15 10 15 2 0 4 -7 4 -15z m95 -46 c-3 -4 -12
-6 -20 -2 -18 6 -20 -13 -2 -21 6 -3 1 -3 -13 0 -14 4 -32 12 -41 18 -13 9 -7
11 32 13 27 0 47 -3 44 -8z m65 -3 c0 -9 -30 -14 -35 -6 -4 6 3 10 14 10 12 0
21 -2 21 -4z m80 -27 c0 -11 -4 -17 -10 -14 -5 3 -10 13 -10 21 0 8 5 14 10
14 6 0 10 -9 10 -21z m187 -71 c-3 -8 -6 -5 -6 6 -1 11 2 17 5 13 3 -3 4 -12
1 -19z m-20 -80 c-2 -18 -4 -6 -4 27 0 33 2 48 4 33 2 -15 2 -42 0 -60z m-117
-12 c0 -15 -18 -31 -26 -23 -7 7 7 37 17 37 5 0 9 -6 9 -14z m137 -28 c-3 -7
-5 -2 -5 12 0 14 2 19 5 13 2 -7 2 -19 0 -25z m-494 5 c-7 -2 -13 -18 -13 -34
0 -16 -4 -29 -9 -29 -8 0 -6 21 5 58 2 6 9 12 16 11 10 0 10 -2 1 -6z m442
-51 c-15 -16 -16 -15 -4 12 7 15 15 23 17 16 3 -7 -3 -19 -13 -28z m32 -4 c-3
-8 -6 -5 -6 6 -1 11 2 17 5 13 3 -3 4 -12 1 -19z m-454 -39 c21 0 21 -1 -1
-10 -29 -11 -43 -4 -35 18 4 11 8 13 11 5 2 -7 13 -12 25 -13z m407 16 c0 -2
-9 -9 -20 -15 -16 -9 -20 -8 -20 5 0 8 9 15 20 15 11 0 20 -2 20 -5z m0 -30
c-7 -9 -15 -13 -19 -10 -3 3 1 10 9 15 21 14 24 12 10 -5z m-447 -9 c4 -10 1
-13 -9 -9 -7 3 -14 9 -14 14 0 14 17 10 23 -5z m84 -23 c0 -16 -2 -22 -4 -15
-3 6 -14 12 -26 12 -22 1 -22 1 -3 15 28 21 34 19 33 -12z"/>
<path d="M1888 3102 c-51 -18 -168 -114 -168 -138 0 -8 -3 -14 -8 -14 -15 0
-42 -82 -48 -149 -11 -112 19 -206 90 -286 30 -34 38 -38 47 -25 9 13 10 13 6
-2 -8 -22 28 -44 100 -63 50 -13 480 -15 3518 -15 2758 0 3468 3 3500 13 123
39 189 106 231 233 26 82 27 90 16 156 -17 95 -50 171 -71 162 -26 -11 -93
-15 -87 -5 3 5 -10 16 -29 25 -38 18 -42 25 -23 44 13 13 52 17 44 4 -6 -11
22 -52 35 -52 6 0 7 9 3 22 -6 22 -6 22 12 3 13 -13 15 -20 6 -23 -16 -5 -16
-22 1 -22 6 0 19 5 27 10 23 14 -39 72 -114 107 l-61 28 -3490 2 c-3241 1
-3493 0 -3537 -15z m7012 -12 c0 -5 -4 -10 -10 -10 -5 0 -10 5 -10 10 0 6 5
10 10 10 6 0 10 -4 10 -10z m-6995 -10 c-27 -12 -43 -12 -25 0 8 5 22 9 30 9
10 0 8 -3 -5 -9z m20 -20 c-3 -5 -14 -10 -23 -9 -14 0 -13 2 3 9 27 11 27 11
20 0z m6960 1 c-3 -5 0 -11 7 -14 7 -2 4 -3 -7 -1 -11 2 -36 4 -55 5 -33 2
-32 2 10 9 25 4 46 8 48 8 2 1 1 -2 -3 -7z m-6767 -8 c-21 -2 -57 -2 -80 0
-24 2 -7 4 37 4 44 0 63 -2 43 -4z m220 0 c-32 -2 -86 -2 -120 0 -35 2 -9 3
57 3 66 0 94 -1 63 -3z m110 0 c-10 -2 -26 -2 -35 0 -10 3 -2 5 17 5 19 0 27
-2 18 -5z m175 0 c-24 -2 -62 -2 -85 0 -24 2 -5 4 42 4 47 0 66 -2 43 -4z
m710 0 c-112 -2 -294 -2 -405 0 -112 1 -21 2 202 2 223 0 314 -1 203 -2z m470
0 c-24 -2 -62 -2 -85 0 -24 2 -5 4 42 4 47 0 66 -2 43 -4z m1355 0 c-152 -2
-404 -2 -560 0 -156 1 -31 2 277 2 308 0 435 -1 283 -2z m390 0 c-15 -2 -42
-2 -60 0 -18 2 -6 4 27 4 33 0 48 -2 33 -4z m639 0 c-109 -2 -285 -2 -390 0
-106 1 -16 2 198 2 215 0 301 -1 192 -2z m346 0 c-24 -2 -62 -2 -85 0 -24 2
-5 4 42 4 47 0 66 -2 43 -4z m372 0 c-59 -3 -76 -7 -65 -14 12 -9 11 -9 -5 -4
-11 4 -33 11 -50 15 -19 5 13 8 85 7 90 -1 97 -2 35 -4z m503 0 c-64 -2 -172
-2 -240 0 -68 1 -15 3 117 3 132 0 187 -2 123 -3z m320 0 c-10 -2 -26 -2 -35
0 -10 3 -2 5 17 5 19 0 27 -2 18 -5z m190 0 c-26 -2 -71 -2 -100 0 -29 2 -8 3
47 3 55 0 79 -1 53 -3z m215 0 c-24 -2 -62 -2 -85 0 -24 2 -5 4 42 4 47 0 66
-2 43 -4z m545 0 c-64 -2 -172 -2 -240 0 -68 1 -15 3 117 3 132 0 187 -2 123
-3z m-6792 -21 c1 -7 0 -8 -3 -2 -8 16 -23 12 -23 -7 0 -9 -3 -14 -6 -10 -4 3
-4 13 0 22 7 18 28 16 32 -3z m154 -5 c14 -2 -10 -5 -53 -8 -48 -2 -77 0 -77
6 0 9 56 10 130 2z m80 6 c-8 -3 -18 -11 -22 -17 -9 -14 -22 -1 -13 13 3 6 16
11 28 10 15 0 17 -2 7 -6z m120 -2 c0 -6 -4 -13 -10 -16 -5 -3 -10 1 -10 9 0
9 5 16 10 16 6 0 10 -4 10 -9z m192 2 c-10 -4 -10 -8 -1 -19 13 -16 1 -18 -21
-4 -13 9 -13 11 0 20 8 5 20 9 25 9 6 0 4 -3 -3 -6z m135 -7 c9 -9 -80 -7 -94
2 -6 4 11 7 38 6 28 -1 53 -5 56 -8z m109 -23 c-11 -11 -17 4 -9 23 7 18 8 18
11 1 2 -10 1 -21 -2 -24z m37 -42 l-1 -80 41 -3 42 -3 3 -107 c2 -94 5 -108
20 -108 41 1 47 15 47 117 l0 98 50 1 50 1 -5 -151 -5 -151 -65 -1 c-36 -1
-80 -4 -98 -8 -29 -6 -38 -2 -59 21 -25 28 -25 30 -29 241 -2 116 -1 212 3
212 5 0 7 -36 6 -79z m2747 59 c0 -11 -4 -20 -9 -20 -5 0 -7 9 -4 20 3 11 7
20 9 20 2 0 4 -9 4 -20z m105 10 c4 -6 -7 -10 -27 -9 -31 1 -32 1 -8 9 14 4
26 8 27 9 1 1 5 -3 8 -9z m682 -12 c-3 -8 -6 -5 -6 6 -1 11 2 17 5 13 3 -3 4
-12 1 -19z m66 -20 l32 -3 3 -194 c2 -164 5 -198 19 -213 9 -10 13 -21 9 -25
-4 -4 -11 -1 -15 6 -5 7 -11 9 -14 4 -7 -11 -65 -5 -72 8 -3 4 -22 1 -42 -7
-45 -19 -97 -11 -118 19 -11 16 -15 49 -15 132 0 145 6 155 96 155 l65 0 -2
55 c-1 30 0 58 4 62 4 3 8 16 8 27 2 20 2 20 6 -1 3 -16 13 -23 36 -25z m496
28 c9 -11 6 -13 -14 -13 -15 0 -25 5 -25 13 0 8 6 14 14 14 7 0 19 -6 25 -14z
m111 -1 c0 -8 -3 -15 -7 -15 -5 0 -7 -89 -6 -197 4 -254 5 -249 -52 -245 l-45
4 2 212 3 211 39 3 c28 2 40 9 43 23 6 22 23 26 23 4z m37 3 c6 16 23 6 23
-14 0 -8 -4 -13 -9 -9 -5 3 -13 0 -17 -6 -8 -13 -24 7 -24 31 0 13 1 13 11 0
8 -11 12 -12 16 -2z m728 2 c-11 -5 -29 -8 -40 -8 -16 0 -15 2 5 8 34 11 60
11 35 0z m195 2 c0 -4 -23 -8 -50 -10 -28 -1 -50 1 -50 5 0 4 23 9 50 10 28 1
50 -1 50 -5z m63 1 c3 -5 8 -24 12 -43 l7 -35 -32 34 c-24 26 -28 36 -18 42
16 11 26 11 31 2z m899 -5 c-17 -8 -26 -8 -34 0 -9 9 -4 12 23 11 32 0 33 -1
11 -11z m-3242 -19 c0 -5 -4 -9 -10 -9 -5 0 -10 7 -10 16 0 8 5 12 10 9 6 -3
10 -10 10 -16z m800 -9 c0 -16 -2 -30 -4 -30 -2 0 -6 14 -8 30 -3 17 -1 30 4
30 4 0 8 -13 8 -30z m1353 23 c-7 -2 -21 -2 -30 0 -10 3 -4 5 12 5 17 0 24 -2
18 -5z m-5953 -28 c-7 -9 -19 -14 -27 -11 -7 3 -13 1 -13 -3 0 -5 6 -11 13
-14 6 -3 2 -4 -9 -4 -28 1 -20 23 15 41 31 17 39 13 21 -9z m810 4 c42 -9 50
-14 49 -32 -1 -54 -12 -62 -80 -62 -61 0 -64 -1 -67 -25 -3 -22 4 -29 50 -50
29 -13 62 -24 72 -24 11 -1 21 -8 23 -16 4 -13 3 -13 -6 0 -5 8 -13 12 -16 8
-3 -3 1 -13 10 -21 8 -9 18 -42 21 -75 6 -58 6 -61 -29 -98 l-35 -38 -80 1
c-102 2 -124 12 -112 53 6 21 5 30 -3 30 -7 0 -6 4 3 10 8 5 44 7 81 3 46 -4
68 -2 74 6 9 15 -2 61 -15 61 -27 0 -119 54 -129 76 -15 35 -13 135 4 157 15
20 77 46 112 47 12 0 45 -5 73 -11z m2960 -213 c0 -117 -2 -215 -5 -218 -3 -3
-25 -2 -48 3 -24 4 -59 3 -82 -2 -94 -24 -128 24 -123 173 4 121 16 138 104
138 l54 0 0 49 c0 72 3 77 55 73 l45 -4 0 -212z m810 145 c0 -71 -6 -62 -13
18 -3 41 -2 59 4 50 5 -8 9 -38 9 -68z m1250 69 c0 -5 -2 -10 -4 -10 -3 0 -8
5 -11 10 -3 6 -1 10 4 10 6 0 11 -4 11 -10z m232 -6 c9 -3 18 -10 20 -17 7
-18 -13 -102 -21 -89 -3 6 -29 14 -57 17 -76 11 -86 -4 -83 -121 3 -116 11
-126 95 -122 58 3 58 3 64 -27 11 -54 4 -62 -62 -69 -74 -7 -139 8 -169 40
-21 22 -23 37 -27 144 -5 141 1 184 33 216 12 12 20 26 16 30 -3 4 -1 5 4 2 6
-3 28 -2 50 2 37 8 98 5 137 -6z m-5755 -8 c4 -5 2 -11 -4 -13 -7 -3 -13 -20
-13 -40 l0 -35 -57 2 c-95 4 -95 4 -91 -32 3 -32 5 -33 51 -36 40 -3 47 0 48
15 0 13 3 12 10 -7 6 -14 9 -46 6 -73 -4 -43 -2 -47 14 -42 18 6 19 0 19 -77
l0 -83 -125 3 -125 3 0 208 c0 114 3 211 7 215 11 10 249 3 260 -8z m121 -203
l-3 -218 -40 3 c-22 2 -42 5 -45 7 -3 2 -4 98 -2 214 l3 211 45 0 44 0 -2
-217z m4699 195 c-3 -8 -6 -5 -6 6 -1 11 2 17 5 13 3 -3 4 -12 1 -19z m28 -8
c3 -5 1 -10 -4 -10 -6 0 -11 5 -11 10 0 6 2 10 4 10 3 0 8 -4 11 -10z m-4269
-66 c0 -31 -3 -48 -6 -38 -6 17 -7 17 -13 0 -11 -28 -8 -39 8 -32 9 3 15 0 15
-10 0 -8 -4 -13 -9 -10 -4 3 -21 10 -37 16 -25 10 -27 13 -12 21 9 5 22 26 28
47 6 20 13 43 15 50 8 22 10 12 11 -44z m1984 41 c-10 -9 -24 -12 -40 -8 l-25
7 30 7 c47 10 50 10 35 -6z m30 -25 c-19 -16 -36 -27 -38 -25 -6 6 33 45 45
45 7 0 13 5 13 12 0 6 3 8 7 4 5 -4 -8 -20 -27 -36z m88 20 c7 -12 16 -19 20
-16 5 3 14 1 22 -4 11 -6 7 -10 -14 -16 -30 -7 -40 -1 -51 34 -8 28 6 29 23 2z
m415 7 c2 -7 17 -13 32 -15 15 -1 40 -14 56 -30 27 -27 28 -28 12 -60 -19 -40
-26 -37 -13 7 8 30 7 33 -10 28 -14 -3 -34 9 -67 39 -31 28 -42 44 -32 44 9 0
19 -6 22 -13z m204 7 c-3 -3 -12 -4 -19 -1 -8 3 -5 6 6 6 11 1 17 -2 13 -5z
m193 -39 c0 -30 4 -43 13 -41 6 1 9 1 5 -1 -5 -3 -8 -11 -8 -19 0 -27 -18 -14
-24 17 -9 47 -7 89 4 89 6 0 10 -20 10 -45z m110 30 c0 -10 10 -15 27 -15 14
0 24 -3 20 -6 -12 -12 -77 6 -77 21 0 8 7 15 15 15 8 0 15 -7 15 -15z m703
-68 c8 -6 7 -7 -3 -4 -10 2 -15 18 -16 48 -1 44 -1 44 3 4 3 -22 10 -44 16
-48z m896 52 c-15 -22 -24 -27 -29 -18 -6 9 -15 5 -35 -15 -28 -28 -45 -27
-45 5 0 14 7 19 28 19 26 0 68 18 47 21 -9 1 30 16 48 18 5 1 -2 -13 -14 -30z
m76 3 c-8 -8 -25 10 -19 20 4 6 9 5 15 -3 4 -7 6 -15 4 -17z m865 16 c0 -14
-30 -48 -42 -48 -4 0 -8 14 -8 30 0 25 4 30 25 30 14 0 25 -5 25 -12z m70 2
c0 -5 -4 -10 -10 -10 -5 0 -10 5 -10 10 0 6 5 10 10 10 6 0 10 -4 10 -10z
m-6570 -35 c0 -19 -3 -35 -7 -35 -7 0 -9 45 -4 65 4 18 11 -1 11 -30z m2618
28 c-10 -2 -26 -2 -35 0 -10 3 -2 5 17 5 19 0 27 -2 18 -5z m1001 -7 c8 -10 9
-16 1 -21 -5 -3 -10 0 -10 9 0 8 -6 17 -12 19 -8 4 -9 6 -2 6 6 1 17 -5 23
-13z m1171 4 c0 -5 -9 -10 -21 -10 -11 0 -17 5 -14 10 3 6 13 10 21 10 8 0 14
-4 14 -10z m227 -42 c-2 -13 -4 -5 -4 17 -1 22 1 32 4 23 2 -10 2 -28 0 -40z
m730 -3 c-16 -12 -11 -35 12 -52 14 -11 14 -12 -4 -13 -12 0 -27 -6 -35 -12
-12 -11 -12 -10 -2 4 15 18 7 61 -14 79 -10 8 -11 16 -3 31 11 20 11 20 35 -3
21 -19 23 -25 11 -34z m1143 45 c0 -5 -5 -10 -11 -10 -5 0 -7 5 -4 10 3 6 8
10 11 10 2 0 4 -4 4 -10z m248 -8 c7 -6 24 -9 37 -6 21 5 44 -11 32 -22 -9 -9
-118 27 -112 37 7 11 26 8 43 -9z m-5755 -9 c-5 -14 -34 -16 -70 -7 -40 11
-25 23 26 21 34 -1 47 -6 44 -14z m382 7 c4 -6 -7 -10 -27 -9 -27 0 -30 2 -13
9 27 12 33 12 40 0z m325 2 c0 -13 -12 -22 -22 -16 -10 6 -1 24 13 24 5 0 9
-4 9 -8z m137 2 c-3 -3 -12 -4 -19 -1 -8 3 -5 6 6 6 11 1 17 -2 13 -5z m2183
-4 c0 -6 -16 -18 -35 -27 -19 -9 -33 -19 -31 -22 2 -3 0 -15 -4 -26 -5 -14 -8
-8 -8 21 -1 38 2 42 31 52 43 13 47 14 47 2z m959 -6 c13 -12 -8 -10 -29 2
l-25 15 25 -7 c14 -3 27 -8 29 -10z m1171 12 c0 -11 -19 -15 -25 -6 -3 5 1 10
9 10 9 0 16 -2 16 -4z m-6171 -153 c-1 -111 -4 -135 -9 -98 -14 90 -10 245 6
245 2 0 3 -66 3 -147z m1621 137 c0 -5 -7 -10 -15 -10 -8 0 -15 5 -15 10 0 6
7 10 15 10 8 0 15 -4 15 -10z m1167 4 c-3 -3 -12 -4 -19 -1 -8 3 -5 6 6 6 11
1 17 -2 13 -5z m246 -1 c-7 -2 -19 -2 -25 0 -7 3 -2 5 12 5 14 0 19 -2 13 -5z
m1892 -3 c3 -6 -1 -7 -9 -4 -18 7 -21 14 -7 14 6 0 13 -4 16 -10z m865 -5 c-7
-8 -9 -23 -6 -32 6 -14 4 -15 -4 -7 -14 14 -4 54 12 54 6 0 6 -6 -2 -15z m250
5 c0 -7 -19 -10 -44 -9 -25 2 -43 6 -40 11 8 12 84 10 84 -2z m170 -25 c-11
-13 -7 -15 19 -15 18 0 41 -4 51 -10 16 -9 17 -13 5 -47 -12 -35 -45 -59 -45
-34 0 6 -11 11 -25 11 -37 0 -31 -17 14 -40 22 -11 47 -30 55 -42 24 -34 20
-92 -8 -125 -21 -24 -31 -28 -78 -27 -57 1 -94 7 -103 16 -4 3 -1 24 5 46 10
40 11 40 43 31 70 -20 77 2 12 36 -50 25 -67 58 -60 110 7 46 30 75 59 75 12
0 30 12 41 26 11 14 21 21 23 15 2 -7 -2 -18 -8 -26z m110 19 c0 -9 5 -12 12
-8 7 4 8 3 4 -4 -8 -14 -33 -5 -40 14 -3 8 1 14 9 14 8 0 15 -7 15 -16z m147
9 c-8 -7 -98 -5 -105 2 -3 3 21 5 53 5 32 0 55 -3 52 -7z m248 -13 c-3 -5 -13
-10 -21 -10 -8 0 -14 5 -14 10 0 6 9 10 21 10 11 0 17 -4 14 -10z m292 -12
c-3 -8 -6 -5 -6 6 -1 11 2 17 5 13 3 -3 4 -12 1 -19z m-7411 -15 c-10 -10 -19
5 -10 18 6 11 8 11 12 0 2 -7 1 -15 -2 -18z m1510 -7 c35 -9 44 -42 44 -161 0
-135 -10 -150 -100 -148 l-61 1 2 -56 3 -57 -53 -3 c-52 -3 -53 -2 -47 20 3
13 6 110 6 217 l0 194 49 -6 c68 -8 121 1 122 22 1 14 2 14 6 -1 2 -9 15 -19
29 -22z m1505 -30 c-5 -46 -9 -50 -38 -58 l-32 -8 -3 -103 -3 -102 -47 -3 -47
-3 -3 38 c-2 21 -1 90 2 153 l5 115 28 3 c16 2 34 -1 40 -6 13 -12 70 8 82 28
14 23 22 -5 16 -54z m679 60 c0 -3 -4 -8 -10 -11 -5 -3 -10 -1 -10 4 0 6 5 11
10 11 6 0 10 -2 10 -4z m2000 -30 c50 -7 58 -13 41 -31 -5 -6 -11 -21 -13 -35
-3 -26 -8 -27 -60 -14 -40 9 -35 -12 7 -32 55 -26 78 -61 71 -109 -3 -22 -7
-50 -9 -62 -1 -12 -6 -25 -10 -29 -4 -5 -5 0 -1 11 7 18 6 19 -11 5 -21 -17
-151 -18 -167 -2 -12 12 4 88 18 85 5 -1 26 -4 47 -8 50 -10 48 7 -5 37 -52
28 -70 61 -64 111 5 48 31 77 68 77 15 0 27 3 27 8 -3 16 4 26 8 11 3 -11 20
-19 53 -23z m-3835 4 c-3 -5 -1 -11 5 -15 5 -3 10 -11 10 -17 0 -7 -5 -6 -14
1 -15 13 -18 54 -4 45 5 -3 6 -9 3 -14z m198 -123 c1 -68 -2 -112 -8 -112 -5
0 -13 -13 -17 -30 -3 -16 -4 -1 -1 34 4 47 2 65 -8 73 -12 8 -11 9 1 5 9 -2
17 -21 21 -48 5 -35 6 -27 7 38 l2 82 -32 -10 c-17 -5 -35 -14 -40 -21 -4 -7
-8 -54 -8 -104 l0 -92 -41 -4 c-24 -2 -43 1 -45 7 -3 6 -3 76 -2 155 l3 145
28 3 c16 2 34 -1 40 -6 8 -7 24 -4 47 7 47 23 51 14 53 -122z m2761 134 c3 -5
22 -12 41 -15 19 -4 35 -11 35 -16 0 -6 6 -10 13 -10 9 0 12 -22 12 -82 l0
-83 -37 3 c-27 3 -38 0 -38 -10 0 -10 -3 -9 -11 2 -8 12 -12 12 -16 2 -4 -10
-8 -10 -19 -1 -11 9 -14 8 -14 -5 0 -23 28 -31 63 -18 40 15 54 2 53 -45 -1
-36 -3 -38 -41 -45 -43 -8 -109 -1 -137 13 -28 15 -41 75 -36 169 4 97 15 116
68 126 17 4 33 11 36 15 7 12 21 11 28 0z m2207 -38 c-9 -16 -11 -15 -12 7
l-1 25 -8 -25 c-5 -15 -8 -18 -9 -8 -1 9 2 23 5 32 5 14 8 14 21 1 10 -11 11
-19 4 -32z m167 27 c46 0 53 -11 37 -55 -12 -35 -11 -42 2 -58 9 -9 14 -20 10
-23 -3 -3 -12 3 -19 15 -7 12 -18 21 -25 21 -7 0 -13 5 -13 10 0 6 -11 10 -25
10 -38 0 -30 -18 19 -41 51 -24 67 -56 59 -118 -8 -61 -32 -76 -114 -75 -39 0
-74 5 -80 11 -6 6 -8 26 -4 47 l7 37 43 -7 c57 -8 66 10 18 35 -64 32 -77 53
-70 113 7 60 24 78 73 78 18 0 36 5 40 12 6 9 9 9 12 0 2 -7 16 -12 30 -12z
m-6935 -10 c3 -11 1 -20 -4 -20 -5 0 -9 9 -9 20 0 11 2 20 4 20 2 0 6 -9 9
-20z m44 12 c8 -5 9 -13 3 -22 -8 -12 -10 -11 -11 5 l0 20 -9 -20 c-8 -19 -9
-19 -9 3 -1 23 6 27 26 14z m50 2 c-3 -3 -12 -4 -19 -1 -8 3 -5 6 6 6 11 1 17
-2 13 -5z m524 -5 c15 -7 24 -7 35 2 8 7 14 7 14 1 0 -16 -30 -23 -50 -12 -31
17 -36 11 -10 -12 20 -17 21 -20 5 -14 -11 5 -28 11 -37 13 -10 3 -18 12 -18
19 0 17 33 18 61 3z m1431 -10 c9 -5 19 -6 22 -1 2 4 34 9 70 10 89 4 94 -4
97 -173 l2 -130 -47 0 -48 0 -1 102 c-1 56 -5 105 -9 108 -4 4 -19 4 -33 1
l-27 -7 3 -102 3 -102 -47 -3 c-53 -3 -49 -15 -48 118 0 81 -5 100 -28 100
-32 0 -38 -22 -35 -123 l3 -98 -54 2 c-32 2 -60 -3 -69 -10 -8 -7 -21 -11 -28
-8 -8 3 -6 6 5 6 11 1 17 7 15 19 -2 11 3 16 14 14 16 -2 18 11 20 140 l3 143
29 3 c16 2 32 -1 35 -7 5 -7 20 -6 46 4 39 13 72 11 107 -6z m955 6 c8 -3 11
-16 7 -37 -10 -56 -13 -63 -26 -50 -18 18 -75 15 -82 -4 -3 -9 -6 -38 -6 -64
0 -39 4 -52 19 -60 27 -14 71 -13 72 3 1 14 27 -61 28 -83 1 -12 -13 -15 -72
-15 -97 1 -136 26 -139 88 -4 92 4 182 19 199 27 30 118 42 180 23z m250 -7
c29 -15 37 -40 35 -113 -3 -80 7 -167 19 -160 5 4 9 2 9 -4 0 -6 -17 -13 -37
-16 -21 -4 -47 -9 -58 -12 -17 -4 -18 -2 -5 7 12 9 7 10 -20 4 -110 -24 -150
0 -150 92 0 45 4 60 21 75 24 20 80 34 104 26 8 -4 17 -2 20 4 12 19 -47 30
-94 18 -10 -3 -17 9 -23 35 -4 21 -6 41 -3 44 21 21 139 21 182 0z m595 1 c31
-16 39 -47 39 -145 1 -81 -2 -101 -18 -123 -39 -52 -173 -50 -209 4 -23 35
-25 202 -2 237 28 42 132 57 190 27z m1308 10 c60 -13 68 -27 71 -119 1 -33 6
-60 10 -60 5 0 9 -5 9 -11 0 -5 -5 -7 -10 -4 -7 4 -10 -13 -8 -52 3 -57 3 -58
-26 -61 -16 -2 -33 1 -38 6 -7 7 -22 5 -46 -5 -44 -18 -96 -10 -117 20 -16 22
-21 113 -7 133 12 19 56 37 92 39 19 1 36 4 38 8 7 20 -1 27 -29 27 -17 0 -28
-4 -24 -10 3 -5 -6 -5 -24 1 -20 7 -30 19 -35 40 -5 27 -36 43 -36 19 0 -5 4
-10 8 -10 4 0 9 -11 10 -26 1 -14 -2 -23 -7 -19 -5 3 -12 -5 -14 -17 -2 -13
-5 5 -6 39 -1 54 1 61 17 59 14 -3 49 1 114 13 4 0 30 -4 58 -10z m620 -76
l-5 -88 -3 74 c-3 65 1 101 10 101 2 0 1 -39 -2 -87z m63 80 c-7 -2 -19 -2
-25 0 -7 3 -2 5 12 5 14 0 19 -2 13 -5z m314 -8 c12 0 21 -2 20 -5 0 -3 5 -23
11 -45 7 -22 12 -88 12 -147 l0 -108 -40 0 c-22 0 -40 4 -40 9 0 5 -19 2 -41
-6 -45 -15 -91 -10 -109 12 -14 17 -30 136 -18 129 4 -3 8 1 8 8 0 20 40 41
85 43 40 2 45 5 45 26 0 12 -61 8 -90 -5 -12 -5 -16 1 -18 26 -1 17 -7 37 -13
44 -8 10 -1 14 28 19 21 4 45 8 53 9 8 2 31 1 50 -2 19 -3 45 -6 57 -7z m535
-7 c15 -5 29 -16 32 -23 3 -8 6 -68 7 -135 1 -66 6 -123 11 -126 4 -3 8 -11 8
-17 0 -8 -3 -8 -9 2 -5 8 -11 9 -15 3 -4 -7 -17 -7 -38 -1 -20 5 -46 5 -71 -2
-72 -19 -123 9 -127 71 -6 79 -1 97 32 111 17 7 50 14 72 15 53 3 51 1 36 19
-9 11 -27 15 -56 14 -24 -2 -46 -1 -49 2 -2 3 -6 21 -7 40 -3 33 -1 34 37 40
46 7 98 2 137 -13z m-6579 -69 c-5 -5 -8 6 -7 24 2 54 7 64 11 23 3 -21 1 -42
-4 -47z m919 66 c0 -5 -5 -11 -11 -13 -6 -2 -11 4 -11 13 0 9 5 15 11 13 6 -2
11 -8 11 -13z m318 5 c0 -5 -2 -10 -4 -10 -3 0 -8 5 -11 10 -3 6 -1 10 4 10 6
0 11 -4 11 -10z m191 -7 c17 -10 32 -27 34 -38 10 -50 11 -126 2 -132 -5 -3
-39 -6 -74 -5 -55 0 -64 -2 -61 -16 4 -20 55 -29 71 -13 19 19 33 12 46 -25
19 -52 1 -67 -82 -68 -116 -2 -143 34 -135 180 4 85 15 109 53 124 36 15 115
11 146 -7z m739 -9 c0 -8 -4 -12 -10 -9 -5 3 -10 13 -10 21 0 8 5 12 10 9 6
-3 10 -13 10 -21z m201 14 c35 -29 44 -62 39 -132 -3 -39 -10 -71 -16 -73 -8
-3 -9 -15 -4 -38 11 -48 -7 -60 -92 -59 -60 0 -72 3 -94 25 -24 24 -25 32 -26
132 -1 112 5 131 47 147 31 13 130 11 146 -2z m99 8 c0 -2 -7 -6 -15 -10 -8
-3 -15 -1 -15 4 0 6 7 10 15 10 8 0 15 -2 15 -4z m204 -113 c-4 -65 -9 -121
-13 -125 -3 -4 -3 37 0 90 4 53 7 109 8 125 1 15 3 27 6 27 3 0 2 -53 -1 -117z
m1154 35 l-1 -83 -6 65 c-3 36 -4 73 -2 83 7 37 11 14 9 -65z m2282 72 c0 -5
-4 -10 -10 -10 -5 0 -10 5 -10 10 0 6 5 10 10 10 6 0 10 -4 10 -10z m937 -52
c-2 -13 -4 -3 -4 22 0 25 2 35 4 23 2 -13 2 -33 0 -45z m-7398 -35 c-4 -136
-13 -150 -27 -44 -9 65 -9 97 -2 111 22 42 31 20 29 -67z m3548 65 c-3 -8 -6
-5 -6 6 -1 11 2 17 5 13 3 -3 4 -12 1 -19z m2533 4 c0 -21 -27 -62 -41 -62
-10 0 -13 63 -2 73 14 14 43 7 43 -11z m-4520 4 c0 -3 -4 -8 -10 -11 -5 -3
-10 -1 -10 4 0 6 5 11 10 11 6 0 10 -2 10 -4z m4290 -27 c0 -10 -4 -19 -10
-19 -5 0 -10 12 -10 26 0 14 4 23 10 19 6 -3 10 -15 10 -26z m-4737 -94 c4
-32 3 -43 -3 -30 -5 11 -9 37 -9 58 -1 20 -5 37 -10 37 -4 0 -6 12 -3 28 6 27
6 27 13 -8 3 -19 9 -57 12 -85z m4393 73 c1 -31 -1 -37 -7 -23 l-8 20 -1 -20
c-2 -15 -3 -16 -7 -4 -3 14 12 69 19 69 2 0 4 -19 4 -42z m969 32 c-3 -5 -11
-10 -16 -10 -6 0 -7 5 -4 10 3 6 11 10 16 10 6 0 7 -4 4 -10z m265 -15 c0 -14
-4 -25 -9 -25 -4 0 -6 11 -3 25 2 14 6 25 8 25 2 0 4 -11 4 -25z m-3433 -17
c-3 -8 -6 -5 -6 6 -1 11 2 17 5 13 3 -3 4 -12 1 -19z m2868 13 c7 -12 -12 -24
-25 -16 -11 7 -4 25 10 25 5 0 11 -4 15 -9z m1242 -13 c-3 -8 -6 -5 -6 6 -1
11 2 17 5 13 3 -3 4 -12 1 -19z m-6145 -6 c-9 -3 -12 -51 -12 -178 0 -116 -4
-174 -11 -174 -5 0 -7 -4 -4 -10 3 -5 1 -10 -4 -10 -6 0 -11 4 -11 9 0 6 -17
12 -37 14 -33 3 -32 4 7 3 28 0 45 4 46 12 1 7 2 88 3 182 1 155 2 169 18 163
11 -4 12 -8 5 -11z m580 -22 c-6 -41 -12 -38 -12 6 0 19 4 33 8 30 5 -3 7 -19
4 -36z m1438 15 c12 -15 6 -35 -12 -35 -6 0 -8 9 -5 20 3 10 0 21 -7 24 -8 3
-8 5 0 5 6 1 17 -6 24 -14z m2497 9 c-3 -3 -12 -4 -19 -1 -8 3 -5 6 6 6 11 1
17 -2 13 -5z m418 -4 c3 -5 1 -10 -4 -10 -6 0 -11 5 -11 10 0 6 2 10 4 10 3 0
8 -4 11 -10z m-5250 -29 c0 -16 -3 -27 -7 -24 -13 7 -7 53 6 53 1 0 1 -13 1
-29z m2612 -113 c-2 -29 -3 -8 -3 47 0 55 1 79 3 53 2 -26 2 -71 0 -100z m290
80 c-2 -13 -4 -3 -4 22 0 25 2 35 4 23 2 -13 2 -33 0 -45z m3150 40 c-3 -8 -6
-5 -6 6 -1 11 2 17 5 13 3 -3 4 -12 1 -19z m-5920 -40 c-2 -13 -4 -5 -4 17 -1
22 1 32 4 23 2 -10 2 -28 0 -40z m4188 42 c-3 -5 -11 -10 -16 -10 -6 0 -7 5
-4 10 3 6 11 10 16 10 6 0 7 -4 4 -10z m2135 -94 c-6 -6 -10 -22 -10 -36 0
-17 -5 -27 -15 -27 -10 0 -12 4 -5 12 5 6 13 45 17 86 l7 74 8 -50 c4 -29 3
-54 -2 -59z m-5843 2 c-2 -18 -4 -4 -4 32 0 36 2 50 4 33 2 -18 2 -48 0 -65z
m5151 72 c-13 -20 -28 -27 -28 -12 0 10 22 32 32 32 5 0 3 -9 -4 -20z m-4688
-5 c0 -8 -4 -15 -10 -15 -5 0 -7 7 -4 15 4 8 8 15 10 15 2 0 4 -7 4 -15z m173
-4 c-4 -3 -11 -10 -15 -15 -5 -5 -8 0 -8 12 0 15 4 20 16 15 9 -3 12 -9 7 -12z
m167 -107 c0 -95 -3 -114 -15 -114 -10 0 -15 10 -15 28 0 21 2 24 10 12 8 -12
10 -11 10 8 0 12 -4 22 -10 22 -6 0 -9 28 -8 68 l1 67 7 -60 7 -60 1 66 c1 41
-3 70 -10 78 -11 10 -10 11 5 6 15 -6 17 -22 17 -121z m446 28 c-11 -10 -12 3
-7 53 l6 50 3 -49 c2 -26 1 -51 -2 -54z m157 84 c4 -10 1 -13 -9 -9 -11 4 -14
-7 -16 -53 l-2 -59 -3 53 c-3 32 1 59 8 68 14 17 16 17 22 0z m2737 4 c0 -5
-2 -10 -4 -10 -3 0 -8 5 -11 10 -3 6 -1 10 4 10 6 0 11 -4 11 -10z m-5006 -15
c-7 -17 -34 -21 -34 -4 0 5 5 7 10 4 6 -3 10 -1 10 4 0 6 4 11 10 11 5 0 7 -7
4 -15z m5459 -42 c6 -25 3 -26 -28 -13 -17 7 -17 9 -2 9 19 1 23 16 7 26 -5 3
-10 14 -10 23 0 14 2 13 13 -3 8 -11 16 -30 20 -42z m-3368 15 c-11 -53 -16
-68 -24 -68 -4 0 -1 23 8 50 17 57 26 66 16 18z m434 1 c25 -7 24 -7 -7 -8
-38 -1 -75 15 -67 30 4 5 14 5 28 -2 11 -7 32 -15 46 -20z m41 27 c0 -11 -19
-15 -25 -6 -3 5 1 10 9 10 9 0 16 -2 16 -4z m3215 -34 c-8 -8 -25 10 -25 26 0
13 2 13 14 -4 8 -10 13 -21 11 -22z m532 -50 c-13 -39 -16 -42 -16 -19 -1 15
5 37 12 48 10 17 10 23 0 26 -7 3 -13 12 -13 21 0 12 4 11 16 -7 15 -21 15
-27 1 -69z m-6275 43 c-7 -24 -9 -26 -15 -12 -4 10 -1 24 6 32 16 18 18 14 9
-20z m1465 -47 c-2 -18 -4 -6 -4 27 0 33 2 48 4 33 2 -15 2 -42 0 -60z m3903
66 c0 -11 -5 -14 -16 -10 -9 3 -18 6 -20 6 -3 0 -2 5 1 10 10 16 35 12 35 -6z
m-5400 -14 c0 -5 -4 -10 -10 -10 -5 0 -10 5 -10 10 0 6 5 10 10 10 6 0 10 -4
10 -10z m4817 4 c-3 -3 -12 -4 -19 -1 -8 3 -5 6 6 6 11 1 17 -2 13 -5z m257
-21 c-8 -32 -12 -39 -19 -31 -9 8 6 58 16 58 5 0 6 -12 3 -27z m923 5 c-3 -8
-6 -5 -6 6 -1 11 2 17 5 13 3 -3 4 -12 1 -19z m-6030 -10 c-3 -8 -6 -5 -6 6
-1 11 2 17 5 13 3 -3 4 -12 1 -19z m131 15 c-10 -2 -28 -2 -40 0 -13 2 -5 4
17 4 22 1 32 -1 23 -4z m1047 -36 c0 -36 -2 -41 -13 -30 -9 8 -11 24 -7 43 10
44 20 37 20 -13z m2318 -22 c4 -39 3 -50 -2 -30 -9 31 -14 102 -7 94 2 -2 6
-31 9 -64z m14 33 c-3 -7 -5 -2 -5 12 0 14 2 19 5 13 2 -7 2 -19 0 -25z m1860
25 c-12 -3 -16 -10 -12 -21 5 -13 3 -14 -6 -5 -14 14 -3 33 19 32 15 -1 14 -2
-1 -6z m-2849 -10 c-10 -2 -26 -2 -35 0 -10 3 -2 5 17 5 19 0 27 -2 18 -5z
m3292 -8 c0 -8 -4 -15 -10 -15 -5 0 -7 7 -4 15 4 8 8 15 10 15 2 0 4 -7 4 -15z
m-4303 -62 c-2 -16 -4 -5 -4 22 0 28 2 40 4 28 2 -13 2 -35 0 -50z m1670 35
c-3 -7 -5 -2 -5 12 0 14 2 19 5 13 2 -7 2 -19 0 -25z m1678 22 c-3 -5 -11 -10
-16 -10 -6 0 -7 5 -4 10 3 6 11 10 16 10 6 0 7 -4 4 -10z m342 -37 c-3 -10 -5
-2 -5 17 0 19 2 27 5 18 2 -10 2 -26 0 -35z m-4920 5 c-3 -7 -5 -2 -5 12 0 14
2 19 5 13 2 -7 2 -19 0 -25z m1042 -30 c-1 -46 -3 -55 -8 -33 -6 29 -3 95 5
95 2 0 3 -28 3 -62z m1204 55 c-7 -2 -19 -2 -25 0 -7 3 -2 5 12 5 14 0 19 -2
13 -5z m71 -29 c3 -8 2 -12 -4 -9 -6 3 -10 10 -10 16 0 14 7 11 14 -7z m2236
-5 c0 -11 -4 -18 -10 -14 -5 3 -7 12 -3 20 7 21 13 19 13 -6z m957 -11 c-3 -7
-5 -2 -5 12 0 14 2 19 5 13 2 -7 2 -19 0 -25z m-6400 0 c-3 -8 -6 -5 -6 6 -1
11 2 17 5 13 3 -3 4 -12 1 -19z m-87 2 c0 -5 -2 -10 -4 -10 -3 0 -8 5 -11 10
-3 6 -1 10 4 10 6 0 11 -4 11 -10z m34 -6 c5 -14 4 -15 -9 -4 -17 14 -19 20
-6 20 5 0 12 -7 15 -16z m2493 -6 c-3 -8 -6 -5 -6 6 -1 11 2 17 5 13 3 -3 4
-12 1 -19z m1373 -10 c0 -5 -4 -8 -10 -8 -5 0 -10 10 -10 23 0 18 2 19 10 7 5
-8 10 -18 10 -22z m267 0 c-3 -7 -5 -2 -5 12 0 14 2 19 5 13 2 -7 2 -19 0 -25z
m513 28 c0 -3 -4 -8 -10 -11 -5 -3 -10 -1 -10 4 0 6 5 11 10 11 6 0 10 -2 10
-4z m550 0 c0 -3 -4 -8 -10 -11 -5 -3 -10 -1 -10 4 0 6 5 11 10 11 6 0 10 -2
10 -4z m570 -38 c-1 -30 -3 -38 -9 -28 -8 14 -4 70 5 70 2 0 4 -19 4 -42z
m-4824 5 c-10 -10 -19 5 -10 18 6 11 8 11 12 0 2 -7 1 -15 -2 -18z m2037 -43
c11 0 9 28 -3 35 -5 3 -10 14 -9 23 0 11 2 12 6 4 2 -6 9 -10 14 -6 5 3 9 -1
9 -8 0 -7 3 -23 6 -35 4 -16 1 -25 -10 -29 -18 -7 -46 17 -46 40 0 9 -4 16
-10 16 -5 0 -10 8 -10 18 1 11 9 3 23 -20 12 -21 25 -38 30 -38z m-2606 13
c-3 -10 -5 -2 -5 17 0 19 2 27 5 18 2 -10 2 -26 0 -35z m4283 -11 c-7 -13 -9
-8 -9 23 0 35 1 37 10 17 6 -15 5 -30 -1 -40z m2037 36 c-3 -8 -6 -5 -6 6 -1
11 2 17 5 13 3 -3 4 -12 1 -19z m-6644 -48 c15 0 27 -4 27 -10 0 -5 7 -10 15
-10 9 0 12 -6 8 -16 -6 -15 -8 -15 -20 2 -8 10 -19 20 -26 20 -7 1 -17 2 -23
3 -15 1 -64 51 -64 65 0 6 13 -4 28 -21 19 -22 36 -33 55 -33z m2137 1 c-15
-29 -28 -26 -22 5 3 19 7 22 13 12 6 -9 9 -4 10 17 1 23 3 25 6 8 2 -12 -1
-31 -7 -42z m858 23 c4 2 14 0 22 -5 11 -7 7 -9 -15 -7 -24 2 -30 8 -32 28
l-3 25 10 -23 c5 -13 13 -21 18 -18z m2166 3 c-1 -42 -14 -87 -25 -87 -5 0 -9
12 -9 28 0 15 -3 38 -7 51 -4 17 -3 22 6 17 6 -4 9 -12 6 -17 -4 -5 -1 -9 4
-9 6 0 11 8 11 18 0 15 8 32 14 32 1 0 1 -15 0 -33z m-3644 7 c0 -8 8 -15 18
-15 16 -1 16 -2 0 -6 -10 -2 -18 -9 -18 -14 0 -14 -30 -11 -46 6 -13 13 -11
14 18 10 28 -5 30 -4 11 4 -28 13 -30 26 -3 28 11 1 20 -4 20 -13z m958 -22
c-4 -2 -8 -10 -8 -18 0 -8 -4 -14 -9 -14 -16 0 -23 20 -17 45 6 24 7 24 24 7
10 -9 14 -18 10 -20z m1836 -2 c-6 -5 -24 21 -24 34 0 6 6 1 14 -10 8 -10 12
-21 10 -24z m1526 26 c0 -8 -6 -16 -14 -19 -10 -4 -12 0 -9 14 6 22 23 26 23
5z m-4043 -18 c-3 -8 -6 -5 -6 6 -1 11 2 17 5 13 3 -3 4 -12 1 -19z m2023 -4
c0 -2 -7 -4 -15 -4 -8 0 -15 4 -15 10 0 5 7 7 15 4 8 -4 15 -8 15 -10z m-1060
-49 c0 -24 -5 -35 -15 -35 -8 0 -15 3 -16 8 0 6 -4 22 -9 47 -6 28 0 36 20 25
14 -8 20 -21 20 -45z m764 13 c-3 -5 -12 -7 -19 -4 -8 3 -16 0 -19 -7 -2 -7
-5 -3 -5 9 -1 11 5 26 11 32 10 10 15 9 25 -4 7 -9 10 -21 7 -26z m343 36 c-3
-3 -12 -4 -19 -1 -8 3 -5 6 6 6 11 1 17 -2 13 -5z m783 2 c0 -2 -7 -6 -15 -10
-8 -3 -15 -1 -15 4 0 6 7 10 15 10 8 0 15 -2 15 -4z m224 -18 c-3 -5 0 -17 7
-26 7 -9 10 -14 5 -10 -5 4 -17 3 -26 -2 -14 -8 -19 -5 -22 13 -6 33 0 46 22
40 11 -3 17 -9 14 -15z m1257 13 c-9 -6 -11 -18 -8 -33 3 -13 3 -28 -1 -33
-12 -17 -29 -15 -30 3 -1 30 20 72 37 72 13 0 13 -2 2 -9z m1159 -16 c-14 -17
-30 -20 -30 -6 0 5 8 12 18 14 9 3 19 5 21 6 2 0 -2 -6 -9 -14z m-6112 -30 c2
-25 -2 -35 -12 -35 -9 0 -13 7 -9 23 13 58 18 61 21 12z m5260 23 c13 -1 17
-28 3 -28 -33 0 -71 15 -71 27 0 12 7 14 28 9 15 -4 33 -7 40 -8z m-6153 -8
c7 -12 8 -12 -75 -15 -36 -1 -73 -5 -82 -10 -13 -5 -18 -3 -18 8 0 9 8 18 18
20 34 9 151 7 157 -3z m405 -10 c0 -22 -3 -23 -49 -14 -46 10 -40 34 9 34 33
0 40 -3 40 -20z m293 0 c20 -10 33 -11 50 -3 12 6 30 14 39 16 20 7 45 -18 28
-28 -5 -3 -10 -1 -10 4 0 6 -11 10 -25 9 -14 -1 -25 -6 -25 -10 0 -4 -13 -8
-30 -8 -16 0 -30 5 -30 10 0 6 -3 9 -7 9 -19 -3 -33 2 -33 12 0 5 3 9 8 7 4
-2 19 -10 35 -18z m1707 11 c0 -8 -52 -31 -71 -31 -20 0 -7 29 14 33 40 8 57
7 57 -2z m2689 0 c29 -2 3 -11 -42 -16 -26 -3 -47 -1 -47 3 0 17 1 18 89 13z
m931 -6 c0 -16 -9 -19 -34 -9 -20 8 -11 24 15 24 10 0 19 -7 19 -15z m854 7
c9 -14 -8 -27 -41 -30 -25 -3 -33 1 -33 13 0 9 3 14 8 12 4 -3 16 -1 27 4 27
10 33 10 39 1z m-5717 -35 c-2 -7 -11 -13 -20 -15 -12 -3 -17 4 -17 23 0 23 2
25 21 15 11 -6 18 -17 16 -23z m353 8 c0 -30 -15 -33 -23 -5 -4 16 1 23 21 29
1 1 2 -10 2 -24z m1930 0 c0 -18 -5 -25 -19 -25 -14 0 -17 6 -13 25 2 14 11
25 18 25 8 0 14 -10 14 -25z m960 3 c0 -10 -2 -18 -5 -18 -2 0 -9 8 -14 18 -8
14 -6 19 5 19 7 0 14 -9 14 -19z m785 12 c3 -5 -1 -10 -9 -10 -9 0 -16 5 -16
10 0 6 4 10 9 10 6 0 13 -4 16 -10z m453 -9 c3 -8 0 -11 -6 -7 -6 3 -13 0 -15
-6 -4 -10 -8 -9 -16 2 -16 22 -13 27 11 26 12 0 23 -7 26 -15z m300 12 c-10
-2 -18 -13 -18 -24 0 -10 -7 -19 -15 -19 -8 0 -15 7 -15 15 0 16 28 35 50 34
11 -1 10 -3 -2 -6z m129 1 c-3 -3 -12 -4 -19 -1 -8 3 -5 6 6 6 11 1 17 -2 13
-5z m517 -10 c18 -17 13 -34 -10 -34 -8 0 -14 10 -14 25 0 29 3 30 24 9z
m-4956 -26 c-20 -12 -48 -9 -48 5 0 22 11 26 36 15 18 -8 21 -14 12 -20z m610
9 c2 -12 -3 -17 -17 -17 -12 0 -21 6 -21 13 0 31 32 34 38 4z m322 -3 c0 -8
-7 -14 -15 -14 -15 0 -21 21 -9 33 10 9 24 -2 24 -19z m555 6 c0 -8 -8 -16
-17 -18 -13 -2 -18 3 -18 18 0 15 5 20 18 18 9 -2 17 -10 17 -18z m1845 0 c0
-11 -7 -20 -15 -20 -15 0 -21 21 -8 33 12 13 23 7 23 -13z m-4850 -12 c0 -13
-23 -5 -28 10 -2 7 2 10 12 6 9 -3 16 -11 16 -16z m1674 7 c-4 -8 -10 -15 -15
-15 -5 0 -9 7 -9 15 0 8 7 15 15 15 9 0 12 -6 9 -15z m136 -6 c0 -6 -4 -7 -10
-4 -5 3 -10 11 -10 16 0 6 5 7 10 4 6 -3 10 -11 10 -16z m164 6 c4 -10 -1 -15
-14 -15 -11 0 -20 7 -20 15 0 8 6 15 14 15 8 0 16 -7 20 -15z m1220 9 c29 -11
16 -24 -24 -24 -29 0 -40 4 -40 15 0 16 35 20 64 9z m296 -9 c0 -8 -4 -15 -9
-15 -5 0 -11 7 -15 15 -3 9 0 15 9 15 8 0 15 -7 15 -15z m1067 -11 c-9 -9 -28
6 -21 18 4 6 10 6 17 -1 6 -6 8 -13 4 -17z m-4832 -4 c-3 -5 2 -10 11 -10 23
0 15 -6 -19 -14 -19 -4 -26 -3 -22 4 3 5 0 10 -7 10 -9 0 -9 3 2 10 20 13 43
13 35 0z m-60 -18 c-3 -3 -11 0 -18 7 -9 10 -8 11 6 5 10 -3 15 -9 12 -12z
m316 8 c84 0 149 -4 149 -9 0 -10 -293 -8 -320 2 -41 15 -42 17 -11 12 18 -3
100 -5 182 -5z m6628 -3 c-11 -8 -52 -12 -125 -11 -60 1 -111 3 -114 5 -3 2
51 6 120 9 69 3 127 7 130 8 3 1 -2 -4 -11 -11z m156 -12 c-27 -13 -57 -24
-65 -24 -8 0 10 11 40 24 71 30 90 30 25 0z m-5355 7 c0 -5 -101 -8 -225 -8
-124 0 -225 4 -225 8 0 4 101 8 225 8 124 0 225 -4 225 -8z m1120 0 c0 -5
-162 -8 -360 -8 -198 1 -360 4 -360 9 0 4 162 7 360 7 198 0 360 -4 360 -8z
m1200 -2 c0 -6 -100 -10 -280 -10 -180 0 -280 4 -280 10 0 6 100 10 280 10
180 0 280 -4 280 -10z m1120 1 c0 -4 -162 -8 -360 -7 -198 0 -360 4 -360 8 0
5 162 8 360 8 198 0 360 -4 360 -9z m1040 -1 c0 -6 -73 -10 -200 -10 -127 0
-200 4 -200 10 0 6 73 10 200 10 127 0 200 -4 200 -10z m815 0 c-28 -12 -47
-12 -40 0 3 6 18 10 33 9 24 0 25 -1 7 -9z m-6667 -27 c-53 -2 -143 -2 -200 0
-57 1 -13 3 97 3 110 0 156 -2 103 -3z m290 0 c-21 -2 -57 -2 -80 0 -24 2 -7
4 37 4 44 0 63 -2 43 -4z m340 0 c-15 -2 -42 -2 -60 0 -18 2 -6 4 27 4 33 0
48 -2 33 -4z m159 1 c-3 -3 -12 -4 -19 -1 -8 3 -5 6 6 6 11 1 17 -2 13 -5z
m751 -1 c-126 -2 -330 -2 -455 0 -126 1 -23 2 227 2 250 0 353 -1 228 -2z
m775 0 c-101 -2 -265 -2 -365 0 -101 1 -19 2 182 2 201 0 283 -1 183 -2z m630
0 c-67 -2 -179 -2 -250 0 -70 1 -15 3 122 3 138 0 195 -2 128 -3z m730 0
c-101 -2 -265 -2 -365 0 -101 1 -19 2 182 2 201 0 283 -1 183 -2z m960 0
c-101 -2 -265 -2 -365 0 -101 1 -19 2 182 2 201 0 283 -1 183 -2z m465 0 c-21
-2 -57 -2 -80 0 -24 2 -7 4 37 4 44 0 63 -2 43 -4z m715 0 c-68 -2 -178 -2
-245 0 -68 1 -13 3 122 3 135 0 190 -2 123 -3z m755 0 c-42 -2 -114 -2 -160 0
-46 1 -11 3 77 3 88 0 125 -2 83 -3z"/>
<path d="M6204 2779 c-12 -14 -15 -29 -11 -60 7 -50 15 -60 45 -48 18 7 22 16
22 51 0 31 -6 49 -19 60 -18 15 -21 15 -37 -3z m26 -29 c0 -5 -4 -10 -10 -10
-5 0 -10 5 -10 10 0 6 5 10 10 10 6 0 10 -4 10 -10z m0 -46 c0 -8 -4 -12 -10
-9 -5 3 -10 10 -10 16 0 5 5 9 10 9 6 0 10 -7 10 -16z"/>
<path d="M5417 2784 c-4 -4 -7 -34 -7 -66 0 -49 3 -58 18 -58 35 0 43 15 40
71 -3 46 -6 54 -23 57 -12 2 -24 0 -28 -4z m25 -36 c-7 -7 -12 -8 -12 -2 0 14
12 26 19 19 2 -3 -1 -11 -7 -17z"/>
<path d="M1947 2733 c-4 -3 -7 -21 -7 -40 l0 -33 70 0 c40 0 70 4 70 10 0 6
-20 10 -45 10 -36 0 -45 3 -44 18 0 10 3 12 6 5 6 -16 83 -17 83 -2 0 5 -4 7
-10 4 -5 -3 -15 3 -22 15 -10 15 -23 20 -54 20 -22 0 -44 -3 -47 -7z m23 -38
c0 -8 -2 -15 -4 -15 -2 0 -6 7 -10 15 -3 8 -1 15 4 15 6 0 10 -7 10 -15z"/>
<path d="M3132 2779 c-21 -8 -23 -14 -20 -61 3 -49 5 -53 31 -56 17 -2 27 2
28 10 5 68 2 112 -6 114 -5 1 -20 -1 -33 -7z m25 -45 c-3 -3 -12 -4 -19 -1 -8
3 -5 6 6 6 11 1 17 -2 13 -5z m-17 -24 c0 -5 -2 -10 -4 -10 -3 0 -8 5 -11 10
-3 6 -1 10 4 10 6 0 11 -4 11 -10z m20 -24 c0 -2 -7 -6 -15 -10 -8 -3 -15 -1
-15 4 0 6 7 10 15 10 8 0 15 -2 15 -4z"/>
<path d="M6507 2794 c-14 -15 -6 -34 14 -34 14 0 19 5 17 17 -3 18 -20 27 -31
17z"/>
<path d="M5115 2680 c-3 -5 -2 -17 2 -25 8 -13 11 -13 31 1 12 8 20 20 17 25
-8 12 -42 12 -50 -1z"/>
<path d="M5722 2788 c-18 -18 -15 -103 4 -123 25 -25 44 -1 44 55 0 75 -17 99
-48 68z m15 -50 c-3 -8 -6 -5 -6 6 -1 11 2 17 5 13 3 -3 4 -12 1 -19z m13 -22
c0 -3 -4 -8 -10 -11 -5 -3 -10 -1 -10 4 0 6 5 11 10 11 6 0 10 -2 10 -4z"/>
<path d="M7060 2664 c0 -14 4 -23 10 -19 6 4 7 12 3 18 -4 8 -1 7 9 -1 11 -9
18 -10 23 -2 9 15 -3 30 -26 30 -14 0 -19 -7 -19 -26z"/>
<path d="M8027 2683 c-4 -3 -7 -14 -7 -24 0 -16 4 -17 30 -7 25 8 28 13 19 24
-12 15 -31 18 -42 7z"/>
<path d="M8555 2680 c-4 -7 -3 -16 3 -22 13 -13 54 0 49 15 -5 16 -43 21 -52
7z"/>
<path d="M3416 2785 c-9 -24 -8 -25 15 -25 14 0 19 5 17 17 -4 23 -24 27 -32
8z"/>
<path d="M4357 2793 c-15 -15 -5 -31 18 -29 28 1 34 21 9 30 -19 7 -19 7 -27
-1z"/>
<path d="M4355 2680 c-10 -16 4 -30 31 -30 26 0 94 25 94 34 0 10 -119 6 -125
-4z"/>
</g>
</svg>
