<?xml version="1.0" standalone="no"?>
<!DOCTYPE svg PUBLIC "-//W3C//DTD SVG 20010904//EN"
 "http://www.w3.org/TR/2001/REC-SVG-20010904/DTD/svg10.dtd">
<svg version="1.0" xmlns="http://www.w3.org/2000/svg"
 width="1280.000000pt" height="251.000000pt" viewBox="0 0 1280.000000 251.000000"
 preserveAspectRatio="xMidYMid meet">

<g transform="translate(0.000000,251.000000) scale(0.100000,-0.100000)"
fill="#000000" stroke="none">
<path d="M0 1743 l0 -766 23 44 c18 34 36 51 81 74 55 28 67 30 215 35 86 4
235 6 331 6 159 -1 181 -3 240 -25 36 -13 81 -34 101 -47 19 -12 76 -43 125
-68 49 -26 114 -61 144 -77 30 -17 87 -48 125 -68 39 -21 111 -61 161 -90 126
-71 189 -91 288 -91 90 0 154 16 212 52 22 14 77 44 124 68 47 24 101 52 120
63 70 41 129 72 337 178 l213 109 76 0 c119 0 247 -47 265 -98 9 -23 -5 -43
-53 -77 -17 -12 -15 -11 -253 -148 -104 -60 -208 -120 -230 -134 -70 -43 -268
-158 -335 -195 -36 -20 -101 -60 -144 -88 -173 -113 -315 -144 -453 -100 -108
34 -134 49 -681 375 -253 151 -315 165 -741 164 -112 0 -207 3 -210 8 -3 4
-15 13 -26 19 -11 6 -28 26 -37 45 -17 33 -18 18 -18 -438 l0 -473 6400 0
6400 0 -1 528 c-1 434 -3 517 -13 472 -27 -127 -107 -224 -210 -255 -59 -18
-258 -20 -355 -4 -75 12 -181 46 -197 63 -9 8 -7 25 6 66 10 30 23 74 30 98
13 50 13 50 140 17 120 -31 222 -33 268 -5 32 20 39 43 33 115 -3 35 -55 73
-108 80 -141 18 -218 51 -282 120 -75 81 -102 221 -64 331 22 66 110 154 178
179 67 24 292 31 435 13 94 -12 105 -15 104 -33 -1 -11 -8 -62 -15 -114 l-13
-94 -141 9 c-221 13 -244 12 -261 -10 -14 -20 -18 -83 -8 -123 9 -33 58 -50
176 -61 105 -10 184 -37 222 -75 22 -22 49 -79 62 -132 10 -41 12 70 13 638
l1 687 -6400 0 -6400 0 0 -767z m9145 458 c44 -7 80 -13 82 -14 5 -6 -49 -253
-57 -261 -5 -5 -41 -3 -87 5 -43 8 -141 14 -218 13 -122 0 -147 -3 -185 -21
-90 -42 -85 -15 -88 -443 l-3 -378 26 -30 c14 -16 44 -38 67 -48 70 -29 265
-20 449 22 25 5 26 3 38 -53 25 -117 38 -224 29 -229 -22 -14 -222 -34 -351
-35 -240 -3 -334 26 -440 134 -81 83 -85 88 -113 157 -24 58 -24 66 -24 352 1
161 5 354 9 428 7 118 12 144 36 195 52 110 150 182 283 210 81 16 424 14 547
-4z m819 -382 c68 -25 123 -83 151 -160 19 -51 20 -79 20 -474 l0 -420 -127
-3 -127 -3 -7 26 c-8 31 -30 32 -87 5 -101 -49 -294 -63 -362 -27 -100 52
-147 149 -148 302 -1 82 2 96 28 144 60 109 117 131 341 131 194 0 194 0 194
93 0 77 -23 126 -70 149 -45 23 -222 24 -334 3 -44 -8 -80 -14 -81 -13 -10 19
-44 213 -38 219 18 18 273 46 430 48 141 1 169 -2 217 -20z m869 0 c76 -7 140
-16 143 -21 3 -4 1 -32 -5 -61 -5 -28 -13 -76 -16 -104 l-7 -53 -66 0 c-37 0
-118 5 -180 10 -151 14 -166 7 -170 -72 -2 -32 2 -66 8 -77 13 -25 61 -39 160
-46 216 -17 300 -102 300 -303 0 -154 -48 -250 -162 -323 -52 -33 -53 -34
-191 -38 -158 -4 -259 9 -359 46 -64 24 -67 27 -61 52 10 39 52 171 58 181 3
4 26 2 52 -6 130 -40 263 -53 322 -33 39 14 51 35 51 94 0 72 -32 99 -139 114
-160 24 -265 97 -311 217 -50 131 -21 256 81 348 57 52 120 75 222 85 80 7 76
7 270 -10z m933 -3 c64 -30 99 -65 133 -136 l26 -55 0 -430 0 -430 -126 -3
-127 -3 -6 26 c-4 14 -12 25 -18 25 -7 0 -53 -14 -103 -32 -77 -27 -104 -32
-190 -32 -84 -1 -106 2 -140 21 -79 42 -122 110 -145 230 -26 131 27 262 125
313 47 24 59 25 232 28 215 4 207 0 201 117 -4 82 -18 106 -78 132 -45 20
-215 20 -320 -1 -48 -9 -77 -11 -81 -5 -13 22 -50 202 -42 209 4 4 58 15 118
24 61 10 117 19 125 21 8 1 94 3 190 4 164 1 178 -1 226 -23z"/>
<path d="M9621 1136 c-42 -15 -61 -41 -61 -84 0 -46 14 -68 51 -81 41 -14 81
-14 152 0 l57 12 0 83 0 84 -82 -1 c-46 0 -98 -6 -117 -13z"/>
<path d="M11402 1133 c-56 -28 -70 -102 -27 -143 31 -29 106 -36 185 -18 l55
13 0 80 0 80 -90 2 c-68 2 -98 -1 -123 -14z"/>
</g>
</svg>
